<svg width="14" height="21" viewBox="0 0 14 21" fill="none" xmlns="http://www.w3.org/2000/svg">
<path d="M6.97029 3.21368C7.85792 3.21368 8.66353 3.5746 9.24903 4.15915C9.83272 4.7437 10.1936 5.54931 10.1936 6.437C10.1936 7.32469 9.83272 8.1311 9.24817 8.71574C8.66362 9.29943 7.85887 9.66034 6.97032 9.66034C6.08269 9.66034 5.27708 9.29942 4.69158 8.71488C4.10789 8.12946 3.74697 7.32471 3.74697 6.43703C3.74697 5.54854 4.10789 4.74293 4.69244 4.15917C5.27441 3.57549 6.08086 3.21457 6.97029 3.21457V3.21368ZM9.45261 16.5446C9.9586 16.6732 10.4059 16.8407 10.7694 17.0376C11.5162 17.44 11.9583 17.9874 11.9583 18.6264C11.9583 19.3862 11.3211 20.0234 10.2927 20.4379C9.43101 20.785 8.25411 21 6.97023 21C5.68541 21 4.50935 20.785 3.64773 20.4379C2.6185 20.0234 1.98212 19.3871 1.98212 18.6264C1.98212 17.9874 2.42421 17.44 3.17109 17.0376C3.5346 16.8408 3.98188 16.6733 4.48785 16.5446C4.73135 16.9046 4.97741 17.2656 5.22005 17.6282C4.62772 17.7396 4.12262 17.9062 3.747 18.1083C3.4042 18.2931 3.20217 18.4753 3.20217 18.6255C3.20217 18.8396 3.54583 19.0848 4.10102 19.3085C4.82372 19.5994 5.83742 19.779 6.97105 19.779C8.10467 19.779 9.11932 19.5986 9.84107 19.3085C10.3963 19.0848 10.7399 18.8396 10.7399 18.6255C10.7399 18.4752 10.537 18.2922 10.1951 18.1083C9.82036 17.9062 9.31437 17.7396 8.72204 17.6282C8.96468 17.2647 9.20988 16.9046 9.45425 16.5446H9.45261ZM11.4998 1.86333C10.3376 0.711494 8.73681 0 6.96934 0C5.20188 0 3.60109 0.711494 2.43884 1.86333C1.28095 3.01085 0.555661 4.5952 0.533203 6.36112C0.533203 9.07487 3.06061 12.8059 5.17158 15.923C5.84074 16.9108 6.46848 17.8373 6.96928 18.6628C7.47007 17.8382 8.09781 16.9109 8.76612 15.9239C10.8781 12.8067 13.4045 9.07664 13.4045 6.37504C13.3898 4.61187 12.6628 3.01717 11.4989 1.86355L11.4998 1.86333Z" fill="#008FE8"/>
</svg>
