<svg width="146" height="46" viewBox="0 0 146 46" fill="none" xmlns="http://www.w3.org/2000/svg">
<path d="M140.604 45.475H4.92875C2.44138 45.475 0.40625 43.4342 0.40625 40.94V4.66C0.40625 2.16575 2.44138 0.125 4.92875 0.125H140.604C143.091 0.125 145.126 2.16575 145.126 4.66V40.94C145.126 43.4342 143.091 45.475 140.604 45.475Z" fill="black"/>
<path d="M30.9329 22.5734C30.9329 19.0588 33.8725 17.3582 33.9856 17.2448C32.2896 14.8639 29.8023 14.5238 28.8978 14.4104C26.7496 14.1837 24.6014 15.6576 23.5838 15.6576C22.4532 15.6576 20.7573 14.4104 18.9483 14.4104C16.5739 14.4104 14.4258 15.7709 13.1821 17.9251C10.6947 22.2333 12.5037 28.5823 14.878 32.0969C16.1217 33.7976 17.4784 35.7249 19.2874 35.6116C21.0964 35.4982 21.7748 34.4778 23.923 34.4778C26.0712 34.4778 26.6365 35.6116 28.5586 35.6116C30.4806 35.6116 31.7243 33.9109 32.8549 32.2103C34.2117 30.2829 34.777 28.3556 34.777 28.2422C34.6639 28.1288 30.9329 26.7683 30.9329 22.5734Z" fill="white"/>
<path d="M27.4276 12.1429C28.3321 10.8958 29.0105 9.30854 28.8975 7.60791C27.5407 7.72129 25.7317 8.51491 24.8272 9.76204C23.9227 10.7824 23.1313 12.483 23.3574 14.0703C24.8272 14.1837 26.4101 13.2767 27.4276 12.1429Z" fill="white"/>
<path d="M56.7107 35.3847H54.2234L52.8666 31.0764H48.118L46.8743 35.3847H44.5L49.2486 20.7593H52.1882L56.7107 35.3847ZM52.4144 29.2624L51.1707 25.4077C51.0576 25.0675 50.8315 24.0472 50.3793 22.6867C50.2662 23.2535 50.0401 24.2739 49.7009 25.4077L48.4572 29.2624H52.4144Z" fill="white"/>
<path d="M68.8084 30.0562C68.8084 31.8702 68.3562 33.2307 67.3386 34.3644C66.4341 35.2714 65.4166 35.7249 64.0598 35.7249C62.7031 35.7249 61.6855 35.2714 61.1202 34.251V39.8064H58.7459V28.4689C58.7459 27.3352 58.7459 26.2014 58.6328 24.9543H60.6679L60.781 26.6549C61.5724 25.4078 62.7031 24.7275 64.2859 24.7275C65.5296 24.7275 66.5472 25.181 67.3386 26.2014C68.3562 27.1084 68.8084 28.3555 68.8084 30.0562ZM66.4341 30.0562C66.4341 29.0358 66.208 28.1288 65.7557 27.5619C65.3035 26.8817 64.6251 26.5415 63.7206 26.5415C63.1553 26.5415 62.59 26.7683 62.1377 27.1084C61.6855 27.4485 61.3463 28.0154 61.2332 28.5823C61.1202 28.9224 61.1202 29.1492 61.1202 29.2625V31.0765C61.1202 31.8702 61.3463 32.437 61.7986 33.0039C62.2508 33.5708 62.9292 33.7975 63.6076 33.7975C64.5121 33.7975 65.1904 33.4574 65.6427 32.7772C66.208 32.0969 66.4341 31.1899 66.4341 30.0562Z" fill="white"/>
<path d="M80.9061 30.0562C80.9061 31.8702 80.4538 33.2307 79.4363 34.3644C78.5318 35.2714 77.5142 35.7249 76.1575 35.7249C74.8007 35.7249 73.7832 35.2714 73.2178 34.251V39.8064H70.8435V28.4689C70.8435 27.3352 70.8435 26.2014 70.7305 24.9543H72.7656L72.8787 26.6549C73.6701 25.4078 74.8007 24.7275 76.3836 24.7275C77.6273 24.7275 78.6448 25.181 79.4363 26.2014C80.4538 27.1084 80.9061 28.3555 80.9061 30.0562ZM78.5318 30.0562C78.5318 29.0358 78.3057 28.1288 77.8534 27.5619C77.4012 26.8817 76.7228 26.5415 75.8183 26.5415C75.253 26.5415 74.6877 26.7683 74.2354 27.1084C73.7832 27.4485 73.444 28.0154 73.3309 28.5823C73.2178 28.9224 73.2178 29.1492 73.2178 29.2625V31.0765C73.2178 31.8702 73.444 32.437 73.8962 33.0039C74.3485 33.5708 75.0268 33.7975 75.7052 33.7975C76.6097 33.7975 77.2881 33.4574 77.7403 32.7772C78.3057 32.0969 78.5318 31.1899 78.5318 30.0562Z" fill="white"/>
<path d="M94.4749 31.3032C94.4749 32.5504 94.0227 33.5707 93.2312 34.3644C92.3267 35.2714 90.97 35.6115 89.274 35.6115C87.6912 35.6115 86.4475 35.2714 85.543 34.7045L86.1083 32.7771C87.1258 33.344 88.2565 33.6841 89.5002 33.6841C90.4047 33.6841 91.083 33.4574 91.5353 33.1172C91.9875 32.6637 92.2136 32.2102 92.2136 31.53C92.2136 30.9631 91.9875 30.3962 91.6483 30.0561C91.1961 29.6026 90.5177 29.2625 89.6132 28.9224C87.0128 28.0154 85.7691 26.5415 85.7691 24.7275C85.7691 23.4804 86.2213 22.5734 87.1258 21.7797C88.0303 20.9861 89.161 20.646 90.7438 20.646C92.1006 20.646 93.1182 20.8727 94.0227 21.3262L93.4573 23.2536C92.6659 22.8001 91.7614 22.5734 90.6308 22.5734C89.8393 22.5734 89.161 22.8001 88.7087 23.1402C88.3695 23.4804 88.1434 23.9339 88.1434 24.5007C88.1434 25.0676 88.3695 25.5211 88.8218 25.9746C89.161 26.3147 89.9524 26.6549 90.97 27.1084C92.2137 27.5619 93.1182 28.2421 93.7965 28.9224C94.1357 29.4892 94.4749 30.2829 94.4749 31.3032Z" fill="white"/>
<path d="M102.163 26.655H99.5629V31.7569C99.5629 33.004 100.015 33.6843 100.92 33.6843C101.372 33.6843 101.711 33.6843 101.937 33.5709L102.05 35.3849C101.598 35.6116 101.033 35.6116 100.241 35.6116C99.3368 35.6116 98.5453 35.3849 98.0931 34.818C97.5277 34.2511 97.3016 33.3441 97.3016 31.9836V26.655H95.7188V24.841H97.3016V22.9136L99.5629 22.2334V24.841H102.163V26.655Z" fill="white"/>
<path d="M113.808 30.0563C113.808 31.6435 113.356 33.004 112.451 34.0244C111.434 35.0448 110.19 35.6116 108.607 35.6116C107.024 35.6116 105.781 35.0448 104.876 34.0244C103.972 33.004 103.52 31.7569 103.52 30.1696C103.52 28.5824 103.972 27.2219 104.989 26.2015C105.894 25.1811 107.251 24.6143 108.833 24.6143C110.416 24.6143 111.66 25.1811 112.565 26.2015C113.356 27.2219 113.808 28.469 113.808 30.0563ZM111.321 30.1696C111.321 29.1493 111.095 28.3556 110.642 27.6754C110.19 26.8818 109.399 26.4283 108.494 26.4283C107.59 26.4283 106.798 26.8818 106.346 27.6754C105.894 28.3556 105.668 29.2626 105.668 30.1696C105.668 31.19 105.894 31.9836 106.346 32.6639C106.798 33.4575 107.59 33.911 108.494 33.911C109.399 33.911 110.077 33.4575 110.642 32.6639C111.095 31.9836 111.321 31.0766 111.321 30.1696Z" fill="white"/>
<path d="M121.383 26.8814C121.157 26.8814 120.931 26.768 120.592 26.768C119.801 26.768 119.122 27.1081 118.67 27.675C118.331 28.2419 118.105 28.9221 118.105 29.7157V35.2711H115.73V28.0151C115.73 26.768 115.73 25.7476 115.617 24.7272H117.652L117.765 26.768H117.878C118.105 26.0877 118.557 25.5209 119.009 25.0674C119.574 24.7272 120.14 24.5005 120.705 24.5005C120.931 24.5005 121.157 24.5005 121.27 24.5005L121.383 26.8814Z" fill="white"/>
<path d="M131.785 29.6028C131.785 30.0563 131.785 30.3964 131.672 30.6231H124.662C124.662 31.6435 125.001 32.4371 125.679 33.004C126.245 33.4575 127.036 33.7976 127.94 33.7976C128.958 33.7976 129.976 33.6843 130.767 33.3441L131.106 34.9314C130.089 35.3849 128.958 35.6116 127.601 35.6116C126.018 35.6116 124.662 35.1581 123.757 34.1378C122.853 33.2308 122.4 31.8703 122.4 30.283C122.4 28.6958 122.853 27.3353 123.644 26.3149C124.549 25.1811 125.792 24.6143 127.375 24.6143C128.845 24.6143 130.089 25.1811 130.767 26.3149C131.558 27.2219 131.785 28.3556 131.785 29.6028ZM129.636 29.0359C129.636 28.3556 129.523 27.7888 129.184 27.2219C128.732 26.5416 128.167 26.2015 127.375 26.2015C126.584 26.2015 126.018 26.5416 125.566 27.1085C125.227 27.562 125.001 28.2423 124.888 28.9225H129.636V29.0359Z" fill="white"/>
<path d="M51.7366 11.8026C51.7366 13.0497 51.3974 14.0701 50.606 14.7504C49.9276 15.3172 48.91 15.6574 47.5533 15.6574C46.8749 15.6574 46.3096 15.6574 45.8574 15.544V8.51474C46.4227 8.40137 47.101 8.40137 47.8925 8.40137C49.1362 8.40137 50.0407 8.62812 50.719 9.19499C51.2844 9.76187 51.7366 10.6689 51.7366 11.8026ZM50.4929 11.8026C50.4929 11.009 50.2668 10.3287 49.8145 9.87524C49.3623 9.42174 48.6839 9.19499 47.8925 9.19499C47.5533 9.19499 47.2141 9.19499 46.988 9.30837V14.637C47.101 14.637 47.4402 14.637 47.7794 14.637C48.6839 14.637 49.3623 14.4102 49.8145 13.9567C50.2668 13.5032 50.4929 12.7096 50.4929 11.8026Z" fill="white"/>
<path d="M58.0681 12.9363C58.0681 13.73 57.842 14.4102 57.3897 14.8637C56.9375 15.4306 56.2591 15.6573 55.4677 15.6573C54.6762 15.6573 54.1109 15.4306 53.6587 14.8637C53.2064 14.4102 52.9803 13.73 52.9803 12.9363C52.9803 12.1427 53.2064 11.4625 53.6587 11.009C54.1109 10.4421 54.7893 10.2153 55.5807 10.2153C56.3722 10.2153 56.9375 10.4421 57.3897 11.009C57.842 11.4625 58.0681 12.1427 58.0681 12.9363ZM56.9375 12.9363C56.9375 12.4828 56.8244 12.0293 56.5983 11.6892C56.3722 11.2357 56.033 11.1223 55.5807 11.1223C55.1285 11.1223 54.7893 11.3491 54.5632 11.6892C54.337 12.0293 54.224 12.4828 54.224 12.9363C54.224 13.3898 54.337 13.8433 54.5632 14.1835C54.7893 14.637 55.1285 14.7503 55.5807 14.7503C56.033 14.7503 56.3722 14.5236 56.5983 14.0701C56.8244 13.8433 56.9375 13.3898 56.9375 12.9363Z" fill="white"/>
<path d="M66.7744 10.3286L65.1915 15.5439H64.174L63.4956 13.2764C63.2695 12.7095 63.1564 12.1426 63.0433 11.5757C62.9303 12.1426 62.8172 12.7095 62.5911 13.2764L61.9127 15.5439H60.8952L59.1992 10.3286H60.3298L60.8952 12.8229C61.0082 13.3897 61.1213 13.9566 61.2343 14.5235C61.3474 14.07 61.4605 13.5031 61.6866 12.8229L62.365 10.3286H63.2695L63.9478 12.7095C64.174 13.2764 64.287 13.8432 64.4001 14.4101C64.5132 13.8432 64.6262 13.2764 64.7393 12.7095L65.4177 10.3286H66.7744Z" fill="white"/>
<path d="M72.6536 15.5441H71.523V12.5963C71.523 11.6893 71.1838 11.2358 70.5054 11.2358C70.1662 11.2358 69.9401 11.3492 69.714 11.5759C69.4878 11.8027 69.3748 12.1428 69.3748 12.4829V15.5441H68.2441V11.8027C68.2441 11.3492 68.2441 10.8957 68.2441 10.3288H69.2617V11.1224C69.3748 10.8957 69.6009 10.6689 69.827 10.4422C70.1662 10.2154 70.5054 10.1021 70.8446 10.1021C71.2968 10.1021 71.7491 10.2154 72.0883 10.5556C72.5405 10.8957 72.6536 11.4626 72.6536 12.2562V15.5441Z" fill="white"/>
<path d="M75.8181 15.5439H74.6875V7.94775H75.8181V15.5439Z" fill="white"/>
<path d="M82.6034 12.9363C82.6034 13.73 82.3773 14.4102 81.9251 14.8637C81.4728 15.4306 80.7944 15.6573 80.003 15.6573C79.2116 15.6573 78.6463 15.4306 78.194 14.8637C77.7418 14.4102 77.5156 13.73 77.5156 12.9363C77.5156 12.1427 77.7418 11.4625 78.194 11.009C78.6463 10.5555 79.3246 10.2153 80.1161 10.2153C80.9075 10.2153 81.4728 10.4421 81.9251 11.009C82.3773 11.4625 82.6034 12.1427 82.6034 12.9363ZM81.4728 12.9363C81.4728 12.4828 81.3598 12.0293 81.1336 11.6892C80.9075 11.2357 80.5683 11.1223 80.1161 11.1223C79.6638 11.1223 79.3246 11.3491 79.0985 11.6892C78.8724 12.0293 78.7593 12.4828 78.7593 12.9363C78.7593 13.3898 78.8724 13.8433 79.0985 14.1835C79.3246 14.637 79.6638 14.7503 80.1161 14.7503C80.5683 14.7503 80.9075 14.5236 81.1336 14.0701C81.3598 13.8433 81.4728 13.3898 81.4728 12.9363Z" fill="white"/>
<path d="M88.1423 15.544H87.1247L87.0117 14.9771C86.6725 15.4306 86.1072 15.6573 85.5419 15.6573C85.0896 15.6573 84.6374 15.544 84.4112 15.2038C84.1851 14.8637 83.959 14.5236 83.959 14.1835C83.959 13.5032 84.1851 13.0497 84.7504 12.7096C85.3157 12.3695 85.9941 12.2561 87.0117 12.2561V12.1427C87.0117 11.4625 86.6725 11.1223 85.9941 11.1223C85.4288 11.1223 85.0896 11.2357 84.6374 11.4625L84.4112 10.6688C84.8635 10.3287 85.4288 10.2153 86.2202 10.2153C87.577 10.2153 88.2554 10.8956 88.2554 12.3695V14.2968C88.1423 14.8637 88.1423 15.2038 88.1423 15.544ZM87.0117 13.73V12.9363C85.768 12.9363 85.0896 13.2765 85.0896 13.9567C85.0896 14.1835 85.2027 14.4102 85.3157 14.5236C85.4288 14.637 85.6549 14.7503 85.881 14.7503C86.1072 14.7503 86.3333 14.637 86.5594 14.5236C86.7855 14.4102 86.8986 14.1835 87.0117 13.9567C87.0117 13.9567 87.0117 13.8433 87.0117 13.73Z" fill="white"/>
<path d="M94.6996 15.5443H93.682V14.7506C93.3428 15.4309 92.7775 15.6576 91.9861 15.6576C91.3077 15.6576 90.8555 15.4309 90.4032 14.9774C89.951 14.5239 89.8379 13.8436 89.8379 13.05C89.8379 12.2564 90.064 11.5761 90.5163 11.0093C90.9685 10.5558 91.5338 10.329 92.0991 10.329C92.7775 10.329 93.2298 10.5558 93.569 11.0093V8.06152H94.6996V14.1838C94.6996 14.6373 94.6996 15.0908 94.6996 15.5443ZM93.569 13.3901V12.4831C93.569 12.3698 93.569 12.2564 93.569 12.143C93.4559 11.9163 93.3428 11.6895 93.1167 11.4628C92.8906 11.236 92.6645 11.236 92.3253 11.236C91.873 11.236 91.5338 11.4628 91.3077 11.8029C91.0816 12.143 90.9685 12.5965 90.9685 13.1634C90.9685 13.7303 91.0816 14.0704 91.3077 14.4105C91.5338 14.7506 91.873 14.9774 92.3253 14.9774C92.6645 14.9774 93.0036 14.864 93.2298 14.5239C93.4559 14.0704 93.569 13.7303 93.569 13.3901Z" fill="white"/>
<path d="M104.537 12.9363C104.537 13.73 104.311 14.4102 103.858 14.8637C103.406 15.4306 102.728 15.6573 101.936 15.6573C101.145 15.6573 100.58 15.4306 100.127 14.8637C99.6751 14.4102 99.449 13.73 99.449 12.9363C99.449 12.1427 99.6751 11.4625 100.127 11.009C100.58 10.4421 101.258 10.2153 102.049 10.2153C102.841 10.2153 103.406 10.4421 103.858 11.009C104.311 11.4625 104.537 12.1427 104.537 12.9363ZM103.293 12.9363C103.293 12.4828 103.18 12.0293 102.954 11.6892C102.728 11.2357 102.389 11.1223 101.936 11.1223C101.484 11.1223 101.145 11.3491 100.919 11.6892C100.693 12.0293 100.58 12.4828 100.58 12.9363C100.58 13.3898 100.693 13.8433 100.919 14.1835C101.145 14.637 101.484 14.7503 101.936 14.7503C102.389 14.7503 102.728 14.5236 102.954 14.0701C103.18 13.8433 103.293 13.3898 103.293 12.9363Z" fill="white"/>
<path d="M110.755 15.5441H109.625V12.5963C109.625 11.6893 109.285 11.2358 108.607 11.2358C108.268 11.2358 108.042 11.3492 107.816 11.5759C107.59 11.8027 107.476 12.1428 107.476 12.4829V15.5441H106.346V11.8027C106.346 11.3492 106.346 10.8957 106.346 10.3288H107.363V11.1224C107.476 10.8957 107.703 10.6689 107.929 10.4422C108.268 10.2154 108.607 10.1021 108.946 10.1021C109.399 10.1021 109.851 10.2154 110.19 10.5556C110.642 10.8957 110.755 11.4626 110.755 12.2562V15.5441Z" fill="white"/>
<path d="M118.444 11.2357H117.2V13.7299C117.2 14.4102 117.426 14.6369 117.878 14.6369C118.104 14.6369 118.217 14.6369 118.444 14.6369V15.5439C118.217 15.6573 117.878 15.6573 117.539 15.6573C117.087 15.6573 116.748 15.5439 116.521 15.2038C116.295 14.977 116.182 14.4102 116.182 13.8433V11.2357H115.391V10.3287H116.182V9.42167L117.313 9.08154V10.3287H118.557V11.2357H118.444Z" fill="white"/>
<path d="M124.548 15.5439H123.417V12.5961C123.417 11.6891 123.078 11.2356 122.4 11.2356C121.835 11.2356 121.495 11.4624 121.269 12.0293C121.269 12.1426 121.269 12.256 121.269 12.4828V15.5439H120.139V7.94775H121.269V11.1223C121.608 10.5554 122.174 10.2153 122.852 10.2153C123.304 10.2153 123.757 10.3286 123.983 10.6688C124.322 11.0089 124.548 11.6891 124.548 12.3694V15.5439Z" fill="white"/>
<path d="M130.767 12.7095C130.767 12.9362 130.767 13.0496 130.767 13.2764H127.375C127.375 13.8432 127.601 14.1834 127.827 14.4101C128.166 14.6369 128.505 14.7502 128.958 14.7502C129.523 14.7502 129.975 14.6369 130.314 14.5235L130.541 15.3171C130.088 15.5439 129.523 15.6572 128.845 15.6572C128.053 15.6572 127.375 15.4305 126.923 14.977C126.47 14.5235 126.244 13.8432 126.244 13.0496C126.244 12.256 126.47 11.5757 126.923 11.1222C127.375 10.5554 127.94 10.3286 128.732 10.3286C129.523 10.3286 130.088 10.5554 130.427 11.1222C130.654 11.4624 130.767 12.0292 130.767 12.7095ZM129.749 12.3694C129.749 12.0292 129.636 11.6891 129.523 11.4624C129.297 11.1222 129.071 11.0089 128.618 11.0089C128.279 11.0089 127.94 11.1222 127.714 11.4624C127.488 11.6891 127.375 12.0292 127.375 12.3694H129.749Z" fill="white"/>
</svg>
