<svg width="21" height="15" viewBox="0 0 21 15" fill="none" xmlns="http://www.w3.org/2000/svg">
<path d="M20.8965 1.05371C20.9622 1.22866 21 1.41768 21 1.61523V12.9229C21 13.8115 20.2732 14.538 19.3848 14.5381H1.61523C0.726841 14.538 0 13.8115 0 12.9229V1.61523C2.12458e-05 1.41768 0.0378418 1.22866 0.103516 1.05371C0.104557 1.05426 0.105656 1.05514 0.106445 1.05566L9.37598 7.47363C9.69636 7.69548 10.0983 7.80566 10.5 7.80566C10.9017 7.80566 11.3036 7.69548 11.624 7.47363L20.8936 1.05566C20.8943 1.05514 20.8954 1.05426 20.8965 1.05371ZM19.3848 0C19.4461 5.53099e-06 19.506 0.00402684 19.5654 0.0107422L10.7051 6.14551C10.6174 6.20658 10.3833 6.20651 10.2959 6.14551L1.43457 0.0107422C1.49398 0.0040251 1.55395 8.59945e-06 1.61523 0H19.3848Z" fill="#008FE8"/>
</svg>
