<svg width="60" height="60" viewBox="0 0 60 60" fill="none" xmlns="http://www.w3.org/2000/svg">
<path d="M29.6631 0.741211C45.6361 0.741211 58.5848 13.6902 58.585 29.6631C58.585 45.6362 45.6362 58.585 29.6631 58.585C13.6902 58.5848 0.741211 45.6361 0.741211 29.6631C0.741418 13.6903 13.6903 0.741418 29.6631 0.741211Z" fill="#457AEE"/>
<path d="M29.6631 0.741211C45.6361 0.741211 58.5848 13.6902 58.585 29.6631C58.585 45.6362 45.6362 58.585 29.6631 58.585C13.6902 58.5848 0.741211 45.6361 0.741211 29.6631C0.741418 13.6903 13.6903 0.741418 29.6631 0.741211Z" stroke="#F5F7F9" stroke-width="1.48317"/>
<path d="M35.8994 18.9004C37.8219 18.9004 39.6291 19.6412 40.9873 20.9863C42.3493 22.3357 43.0996 24.131 43.0996 26.041C43.0995 27.8282 42.4401 29.5161 41.2354 30.832L40.9873 31.0898L39.6738 32.3955L30.0713 41.9023L30.001 41.9727L29.9307 41.9023L19.0088 31.0898C17.6493 29.7401 16.9004 27.9458 16.9004 26.0381C16.9004 24.1301 17.6494 22.3356 19.0088 20.9863C20.3663 19.6418 22.1733 18.9014 24.0967 18.9014C26.0235 18.9014 27.8322 19.6421 29.1895 20.9863H29.1904L30.001 21.7881L30.8115 20.9863C32.1697 19.6412 33.9769 18.9004 35.8994 18.9004ZM35.8994 20.3447C34.3596 20.3447 32.9138 20.9373 31.8281 22.0127L30.0713 23.7529L30.001 23.8223L29.9307 23.7529L28.1729 22.0127C27.088 20.9383 25.6409 20.3467 24.0967 20.3467C22.5556 20.3467 21.11 20.9381 20.0254 22.0127C18.9414 23.0885 18.3448 24.5181 18.3447 26.0381C18.3447 27.5581 18.9419 28.9881 20.0264 30.0645L30 39.9385L39.9697 30.0645C41.0572 28.9871 41.6552 27.5587 41.6553 26.041C41.6553 24.5194 41.0573 23.0888 39.9707 22.0127C38.8849 20.9373 37.4394 20.3448 35.8994 20.3447Z" fill="white" stroke="white" stroke-width="0.2"/>
<path d="M24.4652 21.5203V22.9646H24.3646C23.4859 22.9647 22.6616 23.3015 22.0433 23.9138C21.1812 24.7696 20.8717 26.0194 21.2357 27.1746L21.266 27.2703L21.1703 27.3005L19.9828 27.6736L19.8881 27.7039L19.8578 27.6091C19.3308 25.9361 19.7791 24.1269 21.0267 22.8884C21.9176 22.006 23.1033 21.5203 24.3646 21.5203H24.4652Z" fill="white" stroke="white" stroke-width="0.2"/>
</svg>
