<svg width="146" height="46" viewBox="0 0 146 46" fill="none" xmlns="http://www.w3.org/2000/svg">
<g clip-path="url(#clip0_15_179)">
<path d="M140.885 45.475H5.21C2.72263 45.475 0.6875 43.4342 0.6875 40.94V4.66C0.6875 2.16575 2.72263 0.125 5.21 0.125H140.885C143.372 0.125 145.408 2.16575 145.408 4.66V40.94C145.408 43.4342 143.372 45.475 140.885 45.475Z" fill="black"/>
<path fill-rule="evenodd" clip-rule="evenodd" d="M11.7676 22.3463V10.4419C11.7676 9.7617 12.333 9.19482 12.8983 9.19482C13.4636 9.19482 13.6897 9.3082 14.0289 9.53495L35.85 21.5527C36.3022 21.7794 36.5283 22.1196 36.5283 22.4597C36.5283 22.7998 36.3022 23.1399 35.85 23.3667L14.0289 35.3844C13.8028 35.4978 13.4636 35.7246 12.8983 35.7246C12.333 35.7246 11.7676 35.1577 11.7676 34.4774V22.3463Z" fill="url(#paint0_linear_15_179)"/>
<path fill-rule="evenodd" clip-rule="evenodd" d="M25.9002 22.4597L12.6719 9.19482C12.7849 9.19482 12.7849 9.19482 12.898 9.19482C13.4633 9.19482 13.6894 9.3082 14.0286 9.53495L30.0835 18.3782L25.9002 22.4597Z" fill="url(#paint1_linear_15_179)"/>
<path fill-rule="evenodd" clip-rule="evenodd" d="M29.9707 26.4282L25.9005 22.3467L30.0838 18.1519L35.85 21.3264C36.3022 21.5531 36.5283 21.8932 36.5283 22.2334C36.5283 22.5735 36.3022 22.9136 35.85 23.1404L29.9707 26.4282Z" fill="url(#paint2_linear_15_179)"/>
<path fill-rule="evenodd" clip-rule="evenodd" d="M12.7852 35.4982L25.9004 22.3467L29.9707 26.4282L14.0288 35.1581C13.6897 35.3848 13.4635 35.4982 12.7852 35.4982C12.8982 35.4982 12.8982 35.4982 12.7852 35.4982Z" fill="url(#paint3_linear_15_179)"/>
<path fill-rule="evenodd" clip-rule="evenodd" d="M81.0749 38.5593C80.5096 38.1058 80.0574 37.3122 79.8312 36.8587L81.6402 36.0651C81.7533 36.2918 81.9794 36.632 82.2056 36.9721C82.6578 37.4256 83.3362 37.8791 84.0145 37.8791C84.6929 37.8791 85.4844 37.539 85.9366 36.9721C86.2758 36.4052 86.5019 35.8383 86.5019 35.0447V34.3645C85.1452 36.0651 82.3186 35.8383 80.7357 34.0243C79.0398 32.2103 79.0398 29.1492 80.7357 27.3352C82.4317 25.6346 84.9191 25.4078 86.3889 26.9951V26.2015H88.3109V34.7046C88.3109 36.8587 87.5195 38.1058 86.5019 38.8995C85.8236 39.4663 84.806 39.6931 83.9015 39.6931C82.8839 39.5797 81.8664 39.2396 81.0749 38.5593ZM128.448 39.0128L130.37 34.4778L126.978 26.655H128.9L131.275 32.2103L133.649 26.655H135.571L130.37 39.0128H128.448ZM119.29 34.7046C118.725 34.1377 118.499 33.3441 118.499 32.5505C118.499 31.8702 118.725 31.19 119.177 30.7365C119.968 29.9428 121.099 29.6027 122.343 29.6027C123.134 29.6027 123.813 29.7161 124.378 30.0562C124.378 28.6957 123.247 28.1288 122.343 28.1288C121.551 28.1288 120.76 28.5823 120.421 29.376L118.725 28.6957C119.064 27.9021 119.968 26.4282 122.23 26.4282C123.36 26.4282 124.491 26.7683 125.169 27.562C125.848 28.3556 126.074 29.2626 126.074 30.5097V35.2715H124.152V34.4778C123.926 34.818 123.473 35.0447 123.134 35.2715C122.682 35.4982 122.117 35.6116 121.551 35.6116C120.873 35.4982 119.855 35.2715 119.29 34.7046ZM59.0277 30.6231C59.0277 28.3556 60.7237 25.8613 63.7764 25.8613C66.716 25.8613 68.525 28.3556 68.525 30.6231C68.525 32.8906 66.8291 35.3848 63.7764 35.3848C60.7237 35.3848 59.0277 32.8906 59.0277 30.6231ZM69.2034 30.6231C69.2034 28.3556 70.8993 25.8613 73.952 25.8613C76.8916 25.8613 78.7006 28.3556 78.7006 30.6231C78.7006 32.8906 77.0047 35.3848 73.952 35.3848C71.0124 35.3848 69.2034 32.8906 69.2034 30.6231ZM46.2517 33.1173C43.4251 30.283 43.5382 25.6346 46.3647 22.6868C47.8346 21.213 49.6436 20.5327 51.5656 20.5327C53.3746 20.5327 55.1836 21.213 56.5404 22.5735L55.1836 24.0473C53.1485 22.0066 49.8697 22.12 47.9476 24.1607C45.9125 26.3148 45.9125 29.6027 47.9476 31.7568C49.9827 33.911 53.3746 34.0243 55.4097 31.8702C56.0881 31.19 56.3142 30.283 56.4273 29.376H51.6787V27.3352H58.3494C58.4624 27.7887 58.4624 28.3556 58.4624 28.9225C58.4624 30.6231 57.7841 32.3237 56.6534 33.4575C55.4097 34.7046 53.6007 35.3848 51.7917 35.3848C49.7566 35.2715 47.7215 34.5912 46.2517 33.1173ZM94.0771 33.911C92.3812 32.097 92.3812 29.0358 94.0771 27.1085C95.7731 25.2945 98.5996 25.2945 100.182 27.1085C100.748 27.6753 101.087 28.469 101.426 29.2626L95.2077 31.8702C95.5469 32.6638 96.3384 33.3441 97.469 33.3441C98.4865 33.3441 99.1649 33.004 99.8433 31.9836L101.539 33.1173C101.313 33.3441 101.087 33.5708 100.974 33.7976C99.0519 35.725 95.7731 35.725 94.0771 33.911ZM105.836 35.2715V22.6868H109.906C112.28 22.6868 114.202 24.3875 114.202 26.4282C114.202 28.469 112.506 30.1696 110.358 30.1696H107.871V35.1581L105.836 35.2715ZM115.333 35.2715V22.6868H117.255V35.2715H115.333ZM89.7807 35.0447V20.9862H91.8159V35.0447H89.7807ZM124.265 31.5301C123.813 31.19 123.134 31.0766 122.456 31.0766C121.099 31.0766 120.308 31.7568 120.308 32.5505C120.308 33.3441 121.099 33.7976 121.89 33.7976C123.021 33.7976 124.265 32.8906 124.265 31.5301ZM66.3768 30.6231C66.3768 29.2626 65.4723 27.7887 63.7764 27.7887C62.0804 27.7887 61.1759 29.2626 61.1759 30.6231C61.1759 31.9836 62.0804 33.4575 63.7764 33.4575C65.3592 33.4575 66.3768 31.9836 66.3768 30.6231ZM76.5524 30.6231C76.5524 29.2626 75.6479 27.7887 73.952 27.7887C72.2561 27.7887 71.3516 29.2626 71.3516 30.6231C71.3516 31.9836 72.2561 33.4575 73.952 33.4575C75.6479 33.4575 76.5524 31.9836 76.5524 30.6231ZM86.615 31.4167C86.615 31.3033 86.615 31.19 86.7281 31.0766C86.7281 30.9632 86.7281 30.7365 86.7281 30.6231C86.7281 30.5097 86.7281 30.283 86.7281 30.1696V30.0562C86.7281 29.9428 86.615 29.7161 86.615 29.6027C86.2758 28.469 85.2582 27.6753 84.2407 27.6753C82.8839 27.6753 81.7533 29.0358 81.7533 30.5097C81.7533 32.097 82.8839 33.3441 84.3537 33.3441C85.2582 33.4575 86.1627 32.6638 86.615 31.4167ZM94.8686 30.3963L99.0519 28.5823C98.5996 27.7887 97.9212 27.562 97.3559 27.562C95.66 27.6753 94.6424 29.4893 94.8686 30.3963ZM112.167 26.5416C112.167 25.4078 111.263 24.6142 110.019 24.6142H107.758V28.5823H110.132C111.263 28.5823 112.167 27.6753 112.167 26.5416Z" fill="white"/>
<path fill-rule="evenodd" clip-rule="evenodd" d="M129.918 36.7452H129.805V36.6318H129.918H129.805V36.7452H129.918Z" fill="white"/>
<path fill-rule="evenodd" clip-rule="evenodd" d="M130.144 36.7452C130.144 36.6318 130.144 36.6318 130.144 36.7452C130.03 36.6318 130.03 36.6318 130.144 36.7452C130.03 36.7452 130.03 36.7452 130.144 36.7452ZM130.144 36.6318C130.144 36.7452 130.144 36.7452 130.144 36.6318C130.03 36.7452 130.144 36.7452 130.144 36.6318Z" fill="white"/>
<path fill-rule="evenodd" clip-rule="evenodd" d="M130.258 36.6318H130.145H130.258V36.7452V36.6318Z" fill="white"/>
<path d="M44.668 11.576C44.668 9.53521 46.1378 8.28809 47.9468 8.28809C49.1905 8.28809 49.9819 8.85496 50.5472 9.64859L49.6427 10.2155C49.3035 9.76196 48.7382 9.42184 47.9468 9.42184C46.7031 9.42184 45.7986 10.3288 45.7986 11.6893C45.7986 13.0498 46.7031 13.9568 47.9468 13.9568C48.6252 13.9568 49.1905 13.6167 49.4166 13.39V12.3696H47.6076V11.3492H50.6603V13.7301C50.095 14.4103 49.1905 14.8638 48.0598 14.8638C46.1378 14.8638 44.668 13.5033 44.668 11.576Z" fill="white"/>
<path d="M52.0176 14.7504V8.40137H56.314V9.42174H53.0351V11.009H56.2009V12.0294H53.0351V13.8434H56.314V14.8637L52.0176 14.7504Z" fill="white"/>
<path d="M59.4807 14.7504V9.42174H57.5586V8.40137H62.5333V9.42174H60.6113V14.7504H59.4807Z" fill="white"/>
<path d="M66.3768 14.7504V8.40137H67.5075V14.7504H66.3768Z" fill="white"/>
<path d="M70.5607 14.7504V9.42174H68.6387V8.40137H73.6134V9.42174H71.6914V14.7504H70.5607Z" fill="white"/>
<path d="M77.2305 11.576C77.2305 9.64859 78.5872 8.28809 80.5093 8.28809C82.4313 8.28809 83.7881 9.64859 83.7881 11.576C83.7881 13.5033 82.4313 14.8638 80.5093 14.8638C78.5872 14.8638 77.2305 13.39 77.2305 11.576ZM82.5444 11.576C82.5444 10.2155 81.753 9.30846 80.3962 9.30846C79.1525 9.30846 78.248 10.3288 78.248 11.576C78.248 12.9365 79.0395 13.8435 80.3962 13.8435C81.753 13.8435 82.5444 12.8231 82.5444 11.576Z" fill="white"/>
<path d="M89.4407 14.7504L86.1619 10.2154V14.7504H85.0312V8.40137H86.1619L89.4407 12.823V8.40137H90.5713V14.7504H89.4407Z" fill="white"/>
</g>
<defs>
<linearGradient id="paint0_linear_15_179" x1="19.0691" y1="7.58025" x2="25.4316" y2="33.6381" gradientUnits="userSpaceOnUse">
<stop stop-color="#006884"/>
<stop offset="1" stop-color="#8AD1D0"/>
</linearGradient>
<linearGradient id="paint1_linear_15_179" x1="11.3449" y1="11.3154" x2="28.6152" y2="20.6261" gradientUnits="userSpaceOnUse">
<stop stop-color="#24BBB6"/>
<stop offset="1" stop-color="#DBE692"/>
</linearGradient>
<linearGradient id="paint2_linear_15_179" x1="31.2144" y1="26.9045" x2="31.2144" y2="17.893" gradientUnits="userSpaceOnUse">
<stop stop-color="#FCC072"/>
<stop offset="1" stop-color="#F58A5B"/>
</linearGradient>
<linearGradient id="paint3_linear_15_179" x1="14.6678" y1="37.811" x2="28.332" y2="23.9431" gradientUnits="userSpaceOnUse">
<stop stop-color="#712B8F"/>
<stop offset="1" stop-color="#EA1D27"/>
</linearGradient>
<clipPath id="clip0_15_179">
<rect width="144.72" height="45.35" fill="white" transform="translate(0.6875 0.125)"/>
</clipPath>
</defs>
</svg>
