<svg width="60" height="60" viewBox="0 0 60 60" fill="none" xmlns="http://www.w3.org/2000/svg">
<path d="M29.6631 0.741211C45.6361 0.741211 58.5848 13.6902 58.585 29.6631C58.585 45.6362 45.6362 58.585 29.6631 58.585C13.6902 58.5848 0.741211 45.6361 0.741211 29.6631C0.741418 13.6903 13.6903 0.741418 29.6631 0.741211Z" fill="#457AEE"/>
<path d="M29.6631 0.741211C45.6361 0.741211 58.5848 13.6902 58.585 29.6631C58.585 45.6362 45.6362 58.585 29.6631 58.585C13.6902 58.5848 0.741211 45.6361 0.741211 29.6631C0.741418 13.6903 13.6903 0.741418 29.6631 0.741211Z" stroke="#F5F7F9" stroke-width="1.48317"/>
<path d="M37.1172 28.4004L36.584 29.9102L34.6045 35.5205L34.3223 36.3203H39.9785L39.6953 35.5205L37.7158 29.9102L37.1836 28.4004H37.8916L42.4414 40.4004H41.4248L40.3838 37.4453L40.2422 37.0449H34.0576L33.917 37.4453L32.876 40.4004H31.8584L36.4082 28.4004H37.1172ZM28.2998 19.5996V21.7998H36V22.7998H32.96L32.834 23.2324C32.4631 24.5037 31.9041 25.8193 31.1523 27.1797C30.3977 28.5453 29.6695 29.5534 28.9756 30.2305L28.5459 30.6504L28.9668 31.0801L31.3408 33.5039L30.9736 34.5088L28.2842 31.7539L27.8613 31.3203L27.4316 31.7471L22.3008 36.8516L21.6084 36.1592L26.7393 31.0293L27.1631 30.6055L26.7393 30.1807C26.1311 29.5725 25.5758 28.8744 25.0752 28.084C24.7144 27.5143 24.3731 26.8863 24.0498 26.2002H25.0742C25.394 26.7996 25.7149 27.3376 26.041 27.8105C26.4288 28.3728 26.8909 28.9295 27.4238 29.4814L27.8477 29.9209L28.2793 29.4893C28.9317 28.8368 29.5888 27.9439 30.2539 26.8291C30.9223 25.7088 31.433 24.6286 31.7793 23.5898L32.042 22.7998H19.5996V21.7998H27.2998V19.5996H28.2998Z" fill="white" stroke="white" stroke-width="1.2"/>
</svg>
