<svg width="260" height="60" viewBox="0 0 260 60" fill="none" xmlns="http://www.w3.org/2000/svg">
<path d="M24.3235 0.010018C24.5999 0.0067312 24.8764 0.00344438 25.1612 5.79629e-05C27.6223 -0.00458568 29.9514 0.268824 32.258 1.16748C32.629 1.30968 32.629 1.30968 33.0076 1.45475C33.1865 1.52602 33.3653 1.59729 33.5496 1.67073C32.6819 2.35359 31.7661 2.9056 30.8153 3.46563C26.2843 6.23319 23.8172 10.1268 22.4615 15.2248C22.0659 17.2631 22.078 19.2579 22.7062 21.2145C22.7743 21.4266 22.8297 21.6442 22.8443 21.8664C23.0235 24.5945 21.4143 26.4873 19.7775 28.5943C19.6293 28.7773 19.4812 28.9604 19.3285 29.1489C18.9024 29.6891 18.557 30.1328 18.3091 30.6873C18.1078 31.1377 18.1063 31.6791 18.4199 32.06C18.8787 32.6172 19.6112 32.8983 20.3045 33.2414C20.4564 33.3166 20.5996 33.4092 20.7326 33.5143C21.1083 33.8112 21.2019 33.925 21.3364 34.3307C21.4209 34.5854 21.4651 34.8533 21.4601 35.1215C21.4529 35.5084 21.3847 35.5795 21.0692 35.9081C20.8111 36.1554 20.6345 36.4953 20.6653 36.8513C20.6815 37.0389 20.7298 37.1738 20.8468 37.4388C20.9037 37.5678 20.9961 37.6787 21.1126 37.7583C21.3094 37.8928 21.4165 37.9593 21.5514 38.0166C21.7772 38.1125 21.8904 38.3647 21.7619 38.5736C21.7518 38.59 21.7363 38.6179 21.729 38.6357C21.5066 39.1745 21.451 39.6402 21.4506 40.1561C21.4503 40.5819 21.7286 40.9555 22.126 41.1083C22.7858 41.3819 23.0797 42.0647 23.0612 42.7787C23.0477 43.302 23.0284 43.8249 23.0009 44.3485C22.9807 45.1646 22.9868 45.6646 23.3513 46.2696C23.4944 46.5071 23.6985 46.7033 23.9376 46.8439C25.1666 47.5662 26.4449 47.418 27.9133 47.2982C28.6871 47.1485 29.4482 46.9576 30.2115 46.7614C33.0318 46.0474 33.5654 45.9123 34.593 46.07C35.1485 46.1553 35.6975 46.3475 36.1119 46.7273C36.8802 47.4315 37.0475 48.2384 37.2974 49.3655C37.4677 50.1341 37.5756 50.9179 37.5756 51.7051C37.5756 53.3489 37.5756 55.0005 37.5756 56.6921C37.5756 61.8636 28.4258 57.8851 22.1451 56.8986C20.8735 56.6988 19.8109 55.6828 19.7466 54.3972C19.6996 53.4571 19.6523 52.5106 19.6043 51.5498C19.5968 51.3996 19.5777 51.2498 19.5474 51.1025C19.1223 49.037 19.0372 48.715 18.1712 47.2547C17.8846 46.7714 17.3923 46.4347 16.8311 46.4057C15.3571 46.3293 13.9658 46.602 12.514 47.0298C10.7091 47.5474 8.88317 47.9225 7.02031 47.6228C6.81419 47.5897 6.61724 47.5128 6.43779 47.4061C5.92616 47.102 5.77487 46.9882 5.4308 46.6037C5.21089 46.358 5.05905 46.0548 5.03098 45.7262C4.97977 45.1268 5.036 44.5434 5.09955 43.9265C5.15103 43.4241 5.16884 42.989 5.15604 42.5337C5.14032 41.9742 4.87328 41.4408 4.41852 41.1146C4.33711 41.0561 4.25951 41.0054 4.17288 40.9537C3.75413 40.7038 3.41455 40.3054 3.4073 39.8179C3.40086 39.3848 3.49505 39.0624 3.73175 38.6438C3.87554 38.3895 3.78744 38.0614 3.52271 37.9379C3.14685 37.7389 3.01868 37.6711 2.82135 37.4943C2.55404 37.2548 2.39969 36.8857 2.48979 36.5383C2.50842 36.4665 2.53335 36.3947 2.56974 36.3024C2.63956 36.1254 2.78505 35.9919 2.9656 35.9317C3.26754 35.831 3.46143 35.5276 3.40657 35.2141C3.27742 34.476 3.08329 33.988 2.39775 33.4139C1.97032 33.1361 1.53734 32.8665 1.09875 32.6066C0.839065 32.4502 0.699383 32.366 0.571278 32.2677C0.173054 31.9623 -0.0257454 31.4406 0.105405 30.9562C0.381493 29.9364 1.15105 29.1425 1.82846 28.2924C3.86683 25.8201 3.95972 25.7074 4.5573 22.9374C4.61654 22.6628 4.64239 22.3799 4.63402 22.0992C4.6316 22.0181 4.62917 21.9365 4.62671 21.854C4.59175 21.3891 4.5823 21.2635 4.46917 20.9347C4.35978 20.6168 4.28099 20.288 4.26275 19.9523C4.01472 15.3857 4.82162 11.3696 7.80134 7.69708C8.40178 7.00788 9.02249 6.34937 9.6623 5.69668C9.93009 5.41436 9.93009 5.41436 10.2033 5.12634C13.886 1.52798 19.308 0.0130875 24.3235 0.010018Z" fill="#008FE8"/>
<circle cx="28.9877" cy="37.8441" r="1.07359" fill="#3B83FF"/>
<circle cx="44.2865" cy="38.649" r="1.07359" fill="#3B83FF"/>
<circle cx="30.8673" cy="13.6883" r="3.22077" fill="#3B83FF"/>
<circle cx="27.6454" cy="28.4499" r="3.48916" fill="#3B83FF"/>
<circle cx="38.1137" cy="20.6666" r="2.68397" fill="#3B83FF"/>
<circle cx="36.7705" cy="32.2078" r="1.61038" fill="#3B83FF"/>
<circle cx="46.1639" cy="26.5714" r="1.87878" fill="#3B83FF"/>
<circle cx="49.1182" cy="17.4458" r="1.61038" fill="#3B83FF"/>
<circle cx="42.9444" cy="12.3463" r="1.61038" fill="#3B83FF"/>
<circle cx="40.5287" cy="4.29429" r="1.07359" fill="#3B83FF"/>
<line x1="29.3023" y1="29.3429" x2="37.6072" y2="32.1777" stroke="#3B83FF" stroke-width="1.07359"/>
<line x1="28.686" y1="37.7796" x2="35.9376" y2="32.8377" stroke="#3B83FF" stroke-width="1.07359"/>
<line x1="37.041" y1="31.0926" x2="37.7523" y2="21.9671" stroke="#3B83FF" stroke-width="1.07359"/>
<line x1="44.2921" y1="38.5654" x2="45.9989" y2="27.8295" stroke="#3B83FF" stroke-width="1.07359"/>
<line x1="38.5657" y1="20.5347" x2="32.3926" y2="15.1668" stroke="#3B83FF" stroke-width="1.07359"/>
<line x1="43.6617" y1="12.1041" x2="38.0253" y2="20.6928" stroke="#3B83FF" stroke-width="1.07359"/>
<line x1="42.6968" y1="11.957" x2="40.5496" y2="4.44192" stroke="#3B83FF" stroke-width="1.07359"/>
<line x1="49.5356" y1="17.1558" x2="38.5313" y2="20.3766" stroke="#3B83FF" stroke-width="1.07359"/>
<line x1="46.3726" y1="26.7277" x2="38.0522" y2="20.2861" stroke="#3B83FF" stroke-width="1.07359"/>
<path d="M86.9259 17.6396V21.9509H80.9859V40.0585H75.5249V21.9509H69.5848V17.6396H86.9259ZM100.621 22.0467C102.665 22.0467 104.304 22.728 105.539 24.0906C106.774 25.4319 107.391 27.2842 107.391 29.6474V40.0585H101.962V30.3819C101.962 29.1897 101.653 28.2635 101.036 27.6035C100.418 26.9435 99.588 26.6135 98.5448 26.6135C97.5016 26.6135 96.6712 26.9435 96.0538 27.6035C95.4364 28.2635 95.1277 29.1897 95.1277 30.3819V40.0585H89.6667V16.426H95.1277V24.6335C95.6812 23.8458 96.437 23.2177 97.3951 22.7493C98.3532 22.2809 99.4284 22.0467 100.621 22.0467ZM113.932 20.3861C112.974 20.3861 112.187 20.1093 111.569 19.5557C110.973 18.9809 110.675 18.2783 110.675 17.448C110.675 16.5963 110.973 15.8938 111.569 15.3402C112.187 14.7654 112.974 14.4779 113.932 14.4779C114.869 14.4779 115.636 14.7654 116.232 15.3402C116.849 15.8938 117.158 16.5963 117.158 17.448C117.158 18.2783 116.849 18.9809 116.232 19.5557C115.636 20.1093 114.869 20.3861 113.932 20.3861ZM116.647 22.2383V40.0585H111.186V22.2383H116.647ZM131.463 22.0467C133.549 22.0467 135.21 22.728 136.445 24.0906C137.701 25.4319 138.329 27.2842 138.329 29.6474V40.0585H132.9V30.3819C132.9 29.1897 132.591 28.2635 131.974 27.6035C131.356 26.9435 130.526 26.6135 129.483 26.6135C128.439 26.6135 127.609 26.9435 126.992 27.6035C126.374 28.2635 126.065 29.1897 126.065 30.3819V40.0585H120.604V22.2383H126.065V24.6016C126.619 23.8138 127.364 23.1964 128.301 22.7493C129.238 22.2809 130.292 22.0467 131.463 22.0467ZM153.014 40.0585L147.585 32.5855V40.0585H142.124V16.426H147.585V29.4877L152.982 22.2383H159.72L152.311 31.1803L159.784 40.0585H153.014Z" fill="#008FE8"/>
<path d="M160.939 28.8171C160.939 26.6029 161.418 24.6335 162.376 22.909C163.334 21.1632 164.665 19.8112 166.368 18.8531C168.093 17.8738 170.041 17.3841 172.212 17.3841C174.874 17.3841 177.152 18.0867 179.047 19.4919C180.941 20.897 182.208 22.8132 182.847 25.2403H176.843C176.375 24.3248 175.736 23.6329 174.927 23.1645C174.118 22.6748 173.192 22.4299 172.148 22.4299C170.467 22.4299 169.104 23.0154 168.061 24.1864C167.017 25.3361 166.496 26.8797 166.496 28.8171C166.496 30.7545 167.017 32.3087 168.061 33.4797C169.104 34.6507 170.467 35.2362 172.148 35.2362C173.192 35.2362 174.118 34.9913 174.927 34.5017C175.736 34.012 176.375 33.3094 176.843 32.3939H182.847C182.208 34.821 180.941 36.7372 179.047 38.1423C177.152 39.5262 174.874 40.2182 172.212 40.2182C170.041 40.2182 168.093 39.7391 166.368 38.781C164.665 37.8017 163.334 36.4497 162.376 34.7252C161.418 33.0007 160.939 31.0313 160.939 28.8171ZM190.279 22.2383L194.399 33.3839L198.486 22.2383H204.395L193.217 48.5214H187.341L191.429 39.4517L184.179 22.2383H190.279ZM211.83 24.7612C212.341 23.9309 213.076 23.2603 214.034 22.7493C214.992 22.2383 216.088 21.9828 217.323 21.9828C218.792 21.9828 220.123 22.3554 221.315 23.1006C222.508 23.8458 223.444 24.9103 224.126 26.2942C224.828 27.678 225.18 29.2855 225.18 31.1165C225.18 32.9474 224.828 34.5655 224.126 35.9707C223.444 37.3546 222.508 38.4297 221.315 39.1962C220.123 39.9414 218.792 40.314 217.323 40.314C216.067 40.314 214.971 40.0691 214.034 39.5794C213.097 39.0685 212.363 38.3978 211.83 37.5675V40.0585H206.369V16.426H211.83V24.7612ZM219.623 31.1165C219.623 29.7539 219.239 28.6893 218.473 27.9229C217.728 27.1351 216.802 26.7413 215.695 26.7413C214.609 26.7413 213.683 27.1351 212.916 27.9229C212.171 28.7106 211.798 29.7858 211.798 31.1484C211.798 32.511 212.171 33.5862 212.916 34.3739C213.683 35.1617 214.609 35.5555 215.695 35.5555C216.78 35.5555 217.707 35.1617 218.473 34.3739C219.239 33.5649 219.623 32.4791 219.623 31.1165ZM244.843 30.829C244.843 31.3187 244.811 31.8403 244.747 32.3939H232.388C232.473 33.5223 232.824 34.3846 233.442 34.9807C234.059 35.5768 234.836 35.8749 235.773 35.8749C237.136 35.8749 238.083 35.3 238.615 34.1504H244.428C244.129 35.3213 243.587 36.3752 242.799 37.312C242.032 38.2488 241.064 38.9833 239.893 39.5156C238.722 40.0478 237.412 40.314 235.965 40.314C234.219 40.314 232.665 39.9414 231.302 39.1962C229.939 38.451 228.875 37.3865 228.108 36.0026C227.342 34.6187 226.959 33.0007 226.959 31.1484C226.959 29.2961 227.331 27.678 228.076 26.2942C228.843 24.9103 229.907 23.8458 231.27 23.1006C232.633 22.3554 234.197 21.9828 235.965 21.9828C237.689 21.9828 239.222 22.3448 240.563 23.0687C241.905 23.7925 242.948 24.8251 243.693 26.1664C244.459 27.5077 244.843 29.0619 244.843 30.829ZM239.254 29.6155C239.254 28.5935 238.935 27.7951 238.296 27.2203C237.657 26.6455 236.859 26.358 235.901 26.358C234.964 26.358 234.176 26.6455 233.537 27.2203C232.92 27.7739 232.537 28.5722 232.388 29.6155H239.254ZM253.185 25.4319C253.823 24.3887 254.622 23.569 255.58 22.9728C256.559 22.3554 257.624 22.0467 258.773 22.0467V27.8271H257.272C255.91 27.8271 254.888 28.1251 254.207 28.7213C253.525 29.2961 253.185 30.3181 253.185 31.7871V40.0585H247.724V22.2383H253.185V25.4319Z" fill="#3B83FF"/>
</svg>
