<svg width="261" height="60" viewBox="0 0 261 60" fill="none" xmlns="http://www.w3.org/2000/svg">
<path d="M24.8235 0.010018C25.0999 0.0067312 25.3764 0.00344438 25.6612 5.79629e-05C28.1223 -0.00458568 30.4514 0.268824 32.758 1.16748C33.129 1.30968 33.129 1.30968 33.5076 1.45475C33.6865 1.52602 33.8653 1.59729 34.0496 1.67073C33.1819 2.35359 32.2661 2.9056 31.3153 3.46563C26.7843 6.23319 24.3172 10.1268 22.9615 15.2248C22.5659 17.2631 22.578 19.2579 23.2062 21.2145C23.2743 21.4266 23.3297 21.6442 23.3443 21.8664C23.5235 24.5945 21.9143 26.4873 20.2775 28.5943C20.1293 28.7773 19.9812 28.9604 19.8285 29.1489C19.4024 29.6891 19.057 30.1328 18.8091 30.6873C18.6078 31.1377 18.6063 31.6791 18.9199 32.06C19.3787 32.6172 20.1112 32.8983 20.8045 33.2414C20.9564 33.3166 21.0996 33.4092 21.2326 33.5143C21.6083 33.8112 21.7019 33.925 21.8364 34.3307C21.9209 34.5854 21.9651 34.8533 21.9601 35.1215C21.9529 35.5084 21.8847 35.5795 21.5692 35.9081C21.3111 36.1554 21.1345 36.4953 21.1653 36.8513C21.1815 37.0389 21.2298 37.1738 21.3468 37.4388C21.4037 37.5678 21.4961 37.6787 21.6126 37.7583C21.8094 37.8928 21.9165 37.9593 22.0514 38.0166C22.2772 38.1125 22.3904 38.3647 22.2619 38.5736C22.2518 38.59 22.2363 38.6179 22.229 38.6357C22.0066 39.1745 21.951 39.6402 21.9506 40.1561C21.9503 40.5819 22.2286 40.9555 22.626 41.1083C23.2858 41.3819 23.5797 42.0647 23.5612 42.7787C23.5477 43.302 23.5284 43.8249 23.5009 44.3485C23.4807 45.1646 23.4868 45.6646 23.8513 46.2696C23.9944 46.5071 24.1985 46.7033 24.4376 46.8439C25.6666 47.5662 26.9449 47.418 28.4133 47.2982C29.1871 47.1485 29.9482 46.9576 30.7115 46.7614C33.5318 46.0474 34.0654 45.9123 35.093 46.07C35.6485 46.1553 36.1975 46.3475 36.6119 46.7273C37.3802 47.4315 37.5475 48.2384 37.7974 49.3655C37.9677 50.1341 38.0756 50.9179 38.0756 51.7051C38.0756 53.3489 38.0756 55.0005 38.0756 56.6921C38.0756 61.8636 28.9258 57.8851 22.6451 56.8986C21.3735 56.6988 20.3109 55.6828 20.2466 54.3972C20.1996 53.4571 20.1523 52.5106 20.1043 51.5498C20.0968 51.3996 20.0777 51.2498 20.0474 51.1025C19.6223 49.037 19.5372 48.715 18.6712 47.2547C18.3846 46.7714 17.8923 46.4347 17.3311 46.4057C15.8571 46.3293 14.4658 46.602 13.014 47.0298C11.2091 47.5474 9.38317 47.9225 7.52031 47.6228C7.31419 47.5897 7.11724 47.5128 6.93779 47.4061C6.42616 47.102 6.27487 46.9882 5.9308 46.6037C5.71089 46.358 5.55905 46.0548 5.53098 45.7262C5.47977 45.1268 5.536 44.5434 5.59955 43.9265C5.65103 43.4241 5.66884 42.989 5.65604 42.5337C5.64032 41.9742 5.37328 41.4408 4.91852 41.1146C4.83711 41.0561 4.75951 41.0054 4.67288 40.9537C4.25413 40.7038 3.91455 40.3054 3.9073 39.8179C3.90086 39.3848 3.99505 39.0624 4.23175 38.6438C4.37554 38.3895 4.28744 38.0614 4.02271 37.9379C3.64685 37.7389 3.51868 37.6711 3.32135 37.4943C3.05404 37.2548 2.89969 36.8857 2.98979 36.5383C3.00842 36.4665 3.03335 36.3947 3.06974 36.3024C3.13956 36.1254 3.28505 35.9919 3.4656 35.9317C3.76754 35.831 3.96143 35.5276 3.90657 35.2141C3.77742 34.476 3.58329 33.988 2.89775 33.4139C2.47032 33.1361 2.03734 32.8665 1.59875 32.6066C1.33907 32.4502 1.19938 32.366 1.07128 32.2677C0.673054 31.9623 0.474255 31.4406 0.605405 30.9562C0.881493 29.9364 1.65105 29.1425 2.32846 28.2924C4.36683 25.8201 4.45972 25.7074 5.0573 22.9374C5.11654 22.6628 5.14239 22.3799 5.13402 22.0992C5.1316 22.0181 5.12917 21.9365 5.12671 21.854C5.09175 21.3891 5.0823 21.2635 4.96917 20.9347C4.85978 20.6168 4.78099 20.288 4.76275 19.9523C4.51472 15.3857 5.32162 11.3696 8.30134 7.69708C8.90178 7.00788 9.52249 6.34937 10.1623 5.69668C10.4301 5.41436 10.4301 5.41436 10.7033 5.12634C14.386 1.52798 19.808 0.0130875 24.8235 0.010018Z" fill="#008FE8"/>
<circle cx="29.4877" cy="37.8439" r="1.07359" fill="#3B83FF"/>
<circle cx="44.7865" cy="38.649" r="1.07359" fill="#3B83FF"/>
<circle cx="31.3673" cy="13.6882" r="3.22077" fill="#3B83FF"/>
<circle cx="28.1454" cy="28.4497" r="3.48916" fill="#3B83FF"/>
<circle cx="38.6137" cy="20.6664" r="2.68397" fill="#3B83FF"/>
<circle cx="37.2705" cy="32.2076" r="1.61038" fill="#3B83FF"/>
<circle cx="46.6639" cy="26.5711" r="1.87878" fill="#3B83FF"/>
<circle cx="49.6182" cy="17.4457" r="1.61038" fill="#3B83FF"/>
<circle cx="43.4444" cy="12.3463" r="1.61038" fill="#3B83FF"/>
<circle cx="41.0287" cy="4.29411" r="1.07359" fill="#3B83FF"/>
<line x1="29.8023" y1="29.3427" x2="38.1072" y2="32.1775" stroke="#3B83FF" stroke-width="1.07359"/>
<line x1="29.186" y1="37.7794" x2="36.4376" y2="32.8376" stroke="#3B83FF" stroke-width="1.07359"/>
<line x1="37.541" y1="31.0924" x2="38.2523" y2="21.9669" stroke="#3B83FF" stroke-width="1.07359"/>
<line x1="44.7921" y1="38.5652" x2="46.4989" y2="27.8294" stroke="#3B83FF" stroke-width="1.07359"/>
<line x1="39.0657" y1="20.5346" x2="32.8926" y2="15.1666" stroke="#3B83FF" stroke-width="1.07359"/>
<line x1="44.1617" y1="12.1039" x2="38.5253" y2="20.6926" stroke="#3B83FF" stroke-width="1.07359"/>
<line x1="43.1968" y1="11.9569" x2="41.0496" y2="4.44177" stroke="#3B83FF" stroke-width="1.07359"/>
<line x1="50.0356" y1="17.1557" x2="39.0313" y2="20.3764" stroke="#3B83FF" stroke-width="1.07359"/>
<line x1="46.8726" y1="26.7275" x2="38.5522" y2="20.286" stroke="#3B83FF" stroke-width="1.07359"/>
<path d="M87.4259 17.6395V21.9509H81.4859V40.0584H76.0249V21.9509H70.0848V17.6395H87.4259ZM101.121 22.0467C103.165 22.0467 104.804 22.728 106.039 24.0906C107.274 25.4319 107.891 27.2841 107.891 29.6474V40.0584H102.462V30.3819C102.462 29.1896 102.153 28.2635 101.536 27.6035C100.918 26.9435 100.088 26.6135 99.0448 26.6135C98.0016 26.6135 97.1712 26.9435 96.5538 27.6035C95.9364 28.2635 95.6277 29.1896 95.6277 30.3819V40.0584H90.1667V16.426H95.6277V24.6335C96.1812 23.8457 96.937 23.2177 97.8951 22.7493C98.8532 22.2809 99.9284 22.0467 101.121 22.0467ZM114.432 20.386C113.474 20.386 112.687 20.1092 112.069 19.5557C111.473 18.9808 111.175 18.2783 111.175 17.4479C111.175 16.5963 111.473 15.8937 112.069 15.3402C112.687 14.7653 113.474 14.4779 114.432 14.4779C115.369 14.4779 116.136 14.7653 116.732 15.3402C117.349 15.8937 117.658 16.5963 117.658 17.4479C117.658 18.2783 117.349 18.9808 116.732 19.5557C116.136 20.1092 115.369 20.386 114.432 20.386ZM117.147 22.2383V40.0584H111.686V22.2383H117.147ZM131.963 22.0467C134.049 22.0467 135.71 22.728 136.945 24.0906C138.201 25.4319 138.829 27.2841 138.829 29.6474V40.0584H133.4V30.3819C133.4 29.1896 133.091 28.2635 132.474 27.6035C131.856 26.9435 131.026 26.6135 129.983 26.6135C128.939 26.6135 128.109 26.9435 127.492 27.6035C126.874 28.2635 126.565 29.1896 126.565 30.3819V40.0584H121.104V22.2383H126.565V24.6015C127.119 23.8138 127.864 23.1964 128.801 22.7493C129.738 22.2809 130.792 22.0467 131.963 22.0467ZM153.514 40.0584L148.085 32.5855V40.0584H142.624V16.426H148.085V29.4877L153.482 22.2383H160.22L152.811 31.1803L160.284 40.0584H153.514Z" fill="#008FE8"/>
<path d="M161.439 28.8171C161.439 26.6028 161.918 24.6335 162.876 22.9089C163.834 21.1631 165.165 19.8112 166.868 18.8531C168.593 17.8737 170.541 17.3841 172.712 17.3841C175.374 17.3841 177.652 18.0866 179.547 19.4918C181.441 20.897 182.708 22.8131 183.347 25.2403H177.343C176.875 24.3248 176.236 23.6328 175.427 23.1644C174.618 22.6747 173.692 22.4299 172.648 22.4299C170.967 22.4299 169.604 23.0154 168.561 24.1864C167.517 25.3361 166.996 26.8796 166.996 28.8171C166.996 30.7545 167.517 32.3087 168.561 33.4797C169.604 34.6507 170.967 35.2361 172.648 35.2361C173.692 35.2361 174.618 34.9913 175.427 34.5016C176.236 34.0119 176.875 33.3094 177.343 32.3939H183.347C182.708 34.821 181.441 36.7371 179.547 38.1423C177.652 39.5262 175.374 40.2181 172.712 40.2181C170.541 40.2181 168.593 39.7391 166.868 38.781C165.165 37.8016 163.834 36.4497 162.876 34.7252C161.918 33.0006 161.439 31.0313 161.439 28.8171ZM190.779 22.2383L194.899 33.3839L198.986 22.2383H204.895L193.717 48.5214H187.841L191.929 39.4517L184.679 22.2383H190.779ZM212.33 24.7612C212.841 23.9309 213.576 23.2602 214.534 22.7493C215.492 22.2383 216.588 21.9828 217.823 21.9828C219.292 21.9828 220.623 22.3554 221.815 23.1006C223.008 23.8457 223.944 24.9103 224.626 26.2941C225.328 27.678 225.68 29.2854 225.68 31.1164C225.68 32.9474 225.328 34.5655 224.626 35.9707C223.944 37.3545 223.008 38.4297 221.815 39.1962C220.623 39.9413 219.292 40.3139 217.823 40.3139C216.567 40.3139 215.471 40.0691 214.534 39.5794C213.597 39.0684 212.863 38.3978 212.33 37.5675V40.0584H206.869V16.426H212.33V24.7612ZM220.123 31.1164C220.123 29.7538 219.739 28.6893 218.973 27.9229C218.228 27.1351 217.302 26.7412 216.195 26.7412C215.109 26.7412 214.183 27.1351 213.416 27.9229C212.671 28.7106 212.298 29.7858 212.298 31.1484C212.298 32.511 212.671 33.5861 213.416 34.3739C214.183 35.1616 215.109 35.5555 216.195 35.5555C217.28 35.5555 218.207 35.1616 218.973 34.3739C219.739 33.5648 220.123 32.479 220.123 31.1164ZM245.343 30.829C245.343 31.3187 245.311 31.8403 245.247 32.3939H232.888C232.973 33.5223 233.324 34.3845 233.942 34.9807C234.559 35.5768 235.336 35.8749 236.273 35.8749C237.636 35.8749 238.583 35.3 239.115 34.1503H244.928C244.629 35.3213 244.087 36.3752 243.299 37.312C242.532 38.2487 241.564 38.9833 240.393 39.5155C239.222 40.0478 237.912 40.3139 236.465 40.3139C234.719 40.3139 233.165 39.9413 231.802 39.1962C230.439 38.451 229.375 37.3865 228.608 36.0026C227.842 34.6187 227.459 33.0006 227.459 31.1484C227.459 29.2961 227.831 27.678 228.576 26.2941C229.343 24.9103 230.407 23.8457 231.77 23.1006C233.133 22.3554 234.697 21.9828 236.465 21.9828C238.189 21.9828 239.722 22.3447 241.063 23.0686C242.405 23.7925 243.448 24.8251 244.193 26.1664C244.959 27.5077 245.343 29.0619 245.343 30.829ZM239.754 29.6155C239.754 28.5935 239.435 27.7951 238.796 27.2203C238.157 26.6454 237.359 26.358 236.401 26.358C235.464 26.358 234.676 26.6454 234.037 27.2203C233.42 27.7738 233.037 28.5722 232.888 29.6155H239.754ZM253.685 25.4319C254.323 24.3886 255.122 23.569 256.08 22.9728C257.059 22.3554 258.124 22.0467 259.273 22.0467V27.8271H257.772C256.41 27.8271 255.388 28.1251 254.707 28.7213C254.025 29.2961 253.685 30.318 253.685 31.7871V40.0584H248.224V22.2383H253.685V25.4319Z" fill="#3B83FF"/>
</svg>
