<svg width="275" height="75" viewBox="0 0 275 75" fill="none" xmlns="http://www.w3.org/2000/svg">
<path d="M76.209 67H75.0723V58.4688H76.209V67ZM79.1855 67H78.0898V60.6602H79.127L79.1855 62.0137V67ZM78.4707 63.5664C78.4785 62.9883 78.5898 62.4727 78.8047 62.0195C79.0195 61.5625 79.3184 61.2031 79.7012 60.9414C80.0879 60.6758 80.5371 60.543 81.0488 60.543C81.4668 60.543 81.8262 60.6211 82.127 60.7773C82.4316 60.9297 82.666 61.1738 82.8301 61.5098C82.998 61.8457 83.082 62.291 83.082 62.8457V67H81.9863V62.834C81.9863 62.502 81.9375 62.2344 81.8398 62.0312C81.7461 61.8281 81.6055 61.6816 81.418 61.5918C81.2305 61.498 81 61.4512 80.7266 61.4512C80.457 61.4512 80.2129 61.5078 79.9941 61.6211C79.7754 61.7344 79.5859 61.8906 79.4258 62.0898C79.2656 62.2891 79.1426 62.5176 79.0566 62.7754C78.9707 63.0293 78.9277 63.2988 78.9277 63.584L78.4707 63.5664ZM87.2656 67.1172C86.6289 67.1172 86.1016 66.9727 85.6836 66.6836C85.2656 66.3906 84.9531 66.0039 84.7461 65.5234C84.543 65.043 84.4414 64.5195 84.4414 63.9531V63.707C84.4414 63.1367 84.5449 62.6133 84.752 62.1367C84.959 61.6562 85.2715 61.2715 85.6895 60.9824C86.1074 60.6895 86.6328 60.543 87.2656 60.543C87.7617 60.543 88.1953 60.6445 88.5664 60.8477C88.9414 61.0469 89.2344 61.3203 89.4453 61.668C89.6602 62.0117 89.7773 62.4023 89.7969 62.8398H88.7598C88.7402 62.5781 88.666 62.3398 88.5371 62.125C88.4121 61.9102 88.2402 61.7402 88.0215 61.6152C87.8066 61.4863 87.5547 61.4219 87.2656 61.4219C86.8242 61.4219 86.4766 61.5352 86.2227 61.7617C85.9727 61.9883 85.7949 62.2773 85.6895 62.6289C85.5879 62.9766 85.5371 63.3359 85.5371 63.707V63.9531C85.5371 64.3242 85.5879 64.6855 85.6895 65.0371C85.791 65.3887 85.9668 65.6777 86.2168 65.9043C86.4707 66.127 86.8203 66.2383 87.2656 66.2383C87.5234 66.2383 87.7617 66.1855 87.9805 66.0801C88.1992 65.9707 88.3789 65.8223 88.5195 65.6348C88.6602 65.4473 88.7402 65.2344 88.7598 64.9961H89.7969C89.7773 65.3711 89.6504 65.7207 89.416 66.0449C89.1816 66.3652 88.877 66.625 88.502 66.8242C88.127 67.0195 87.7148 67.1172 87.2656 67.1172ZM92.1113 67H91.0156V60.6602H92.082L92.1113 61.6562V67ZM94.0859 61.627C93.9922 61.6074 93.9043 61.5957 93.8223 61.5918C93.7441 61.584 93.6543 61.5801 93.5527 61.5801C93.2207 61.5801 92.9395 61.6484 92.709 61.7852C92.4824 61.9219 92.3066 62.1113 92.1816 62.3535C92.0566 62.5918 91.9785 62.8652 91.9473 63.1738L91.6367 63.3496C91.6367 62.8379 91.7051 62.3711 91.8418 61.9492C91.9785 61.5234 92.1914 61.1836 92.4805 60.9297C92.7734 60.6719 93.1484 60.543 93.6055 60.543C93.6797 60.543 93.7676 60.5527 93.8691 60.5723C93.9746 60.5879 94.0469 60.6055 94.0859 60.625V61.627ZM97.7188 67.1172C97.1289 67.1172 96.6152 66.9863 96.1777 66.7246C95.7441 66.459 95.4062 66.0957 95.1641 65.6348C94.9258 65.1738 94.8066 64.6465 94.8066 64.0527V63.8008C94.8066 63.1133 94.9375 62.5273 95.1992 62.043C95.4648 61.5547 95.8086 61.1836 96.2305 60.9297C96.6562 60.6719 97.1055 60.543 97.5781 60.543C98.1875 60.543 98.6836 60.6797 99.0664 60.9531C99.4531 61.2227 99.7363 61.5918 99.916 62.0605C100.1 62.5254 100.191 63.0527 100.191 63.6426V64.1289H95.457V63.25H99.0957V63.168C99.0801 62.8867 99.0234 62.6133 98.9258 62.3477C98.8281 62.0781 98.6719 61.8574 98.457 61.6855C98.2422 61.5098 97.9492 61.4219 97.5781 61.4219C97.25 61.4219 96.959 61.5156 96.7051 61.7031C96.4551 61.8867 96.2578 62.1562 96.1133 62.5117C95.9727 62.8633 95.9023 63.293 95.9023 63.8008V64.0527C95.9023 64.4551 95.9766 64.8223 96.125 65.1543C96.2734 65.4824 96.4883 65.7461 96.7695 65.9453C97.0508 66.1406 97.3867 66.2383 97.7773 66.2383C98.1602 66.2383 98.4844 66.1602 98.75 66.0039C99.0156 65.8477 99.248 65.6387 99.4473 65.377L100.109 65.8926C99.9062 66.2051 99.6133 66.4883 99.2305 66.7422C98.8516 66.9922 98.3477 67.1172 97.7188 67.1172ZM105.195 62.6523C105.195 62.2734 105.082 61.9727 104.855 61.75C104.633 61.5234 104.303 61.4102 103.865 61.4102C103.596 61.4102 103.357 61.457 103.15 61.5508C102.947 61.6445 102.789 61.7676 102.676 61.9199C102.562 62.0723 102.506 62.2383 102.506 62.418H101.41C101.41 62.1133 101.514 61.8184 101.721 61.5332C101.928 61.2441 102.219 61.0078 102.594 60.8242C102.973 60.6367 103.418 60.543 103.93 60.543C104.391 60.543 104.799 60.6211 105.154 60.7773C105.51 60.9336 105.787 61.1699 105.986 61.4863C106.189 61.7988 106.291 62.1914 106.291 62.6641V65.6172C106.291 65.8281 106.309 66.0527 106.344 66.291C106.383 66.5293 106.439 66.7344 106.514 66.9062V67H105.371C105.316 66.875 105.273 66.709 105.242 66.502C105.211 66.291 105.195 66.0957 105.195 65.916V62.6523ZM105.383 63.918H104.305C103.688 63.918 103.211 64.0156 102.875 64.2109C102.539 64.4062 102.371 64.6992 102.371 65.0898C102.371 65.3945 102.473 65.6523 102.676 65.8633C102.883 66.0742 103.184 66.1797 103.578 66.1797C103.91 66.1797 104.203 66.1094 104.457 65.9688C104.711 65.8281 104.912 65.6543 105.061 65.4473C105.209 65.2402 105.289 65.041 105.301 64.8496L105.77 65.3711C105.742 65.5352 105.668 65.7168 105.547 65.916C105.426 66.1152 105.264 66.3066 105.061 66.4902C104.861 66.6699 104.623 66.8203 104.346 66.9414C104.072 67.0586 103.764 67.1172 103.42 67.1172C102.99 67.1172 102.613 67.0352 102.289 66.8711C101.969 66.7031 101.719 66.4766 101.539 66.1914C101.363 65.9062 101.275 65.5898 101.275 65.2422C101.275 64.5586 101.533 64.041 102.049 63.6895C102.564 63.334 103.258 63.1562 104.129 63.1562H105.383V63.918ZM110.328 67.1172C109.77 67.1172 109.297 67.0176 108.91 66.8184C108.523 66.6191 108.23 66.3633 108.031 66.0508C107.832 65.7344 107.732 65.4004 107.732 65.0488H108.828C108.848 65.3457 108.934 65.582 109.086 65.7578C109.242 65.9297 109.432 66.0527 109.654 66.127C109.881 66.2012 110.105 66.2383 110.328 66.2383C110.625 66.2383 110.873 66.1992 111.072 66.1211C111.275 66.0391 111.428 65.9297 111.529 65.793C111.635 65.6523 111.688 65.4941 111.688 65.3184C111.688 65.1621 111.652 65.0176 111.582 64.8848C111.516 64.748 111.379 64.625 111.172 64.5156C110.965 64.4023 110.652 64.3027 110.234 64.2168C109.766 64.1191 109.359 63.9961 109.016 63.8477C108.676 63.6953 108.412 63.502 108.225 63.2676C108.041 63.0332 107.949 62.7422 107.949 62.3945C107.949 62.0586 108.045 61.752 108.236 61.4746C108.432 61.1934 108.705 60.9688 109.057 60.8008C109.412 60.6289 109.826 60.543 110.299 60.543C110.807 60.543 111.24 60.6328 111.6 60.8125C111.963 60.9883 112.24 61.2266 112.432 61.5273C112.623 61.8242 112.719 62.1543 112.719 62.5176H111.623C111.623 62.2559 111.508 62.0078 111.277 61.7734C111.051 61.5391 110.725 61.4219 110.299 61.4219C110.002 61.4219 109.76 61.4688 109.572 61.5625C109.389 61.6523 109.254 61.7695 109.168 61.9141C109.086 62.0547 109.045 62.2031 109.045 62.3594C109.045 62.5156 109.084 62.6523 109.162 62.7695C109.24 62.8828 109.383 62.9844 109.59 63.0742C109.801 63.1641 110.105 63.2539 110.504 63.3438C111.023 63.4609 111.451 63.6016 111.787 63.7656C112.123 63.9297 112.373 64.1309 112.537 64.3691C112.701 64.6074 112.783 64.8984 112.783 65.2422C112.783 65.6094 112.682 65.9355 112.479 66.2207C112.275 66.502 111.99 66.7227 111.623 66.8828C111.256 67.0391 110.824 67.1172 110.328 67.1172ZM116.832 67.1172C116.242 67.1172 115.729 66.9863 115.291 66.7246C114.857 66.459 114.52 66.0957 114.277 65.6348C114.039 65.1738 113.92 64.6465 113.92 64.0527V63.8008C113.92 63.1133 114.051 62.5273 114.312 62.043C114.578 61.5547 114.922 61.1836 115.344 60.9297C115.77 60.6719 116.219 60.543 116.691 60.543C117.301 60.543 117.797 60.6797 118.18 60.9531C118.566 61.2227 118.85 61.5918 119.029 62.0605C119.213 62.5254 119.305 63.0527 119.305 63.6426V64.1289H114.57V63.25H118.209V63.168C118.193 62.8867 118.137 62.6133 118.039 62.3477C117.941 62.0781 117.785 61.8574 117.57 61.6855C117.355 61.5098 117.062 61.4219 116.691 61.4219C116.363 61.4219 116.072 61.5156 115.818 61.7031C115.568 61.8867 115.371 62.1562 115.227 62.5117C115.086 62.8633 115.016 63.293 115.016 63.8008V64.0527C115.016 64.4551 115.09 64.8223 115.238 65.1543C115.387 65.4824 115.602 65.7461 115.883 65.9453C116.164 66.1406 116.5 66.2383 116.891 66.2383C117.273 66.2383 117.598 66.1602 117.863 66.0039C118.129 65.8477 118.361 65.6387 118.561 65.377L119.223 65.8926C119.02 66.2051 118.727 66.4883 118.344 66.7422C117.965 66.9922 117.461 67.1172 116.832 67.1172ZM126.424 67.1172C126.029 67.1172 125.641 67.0625 125.258 66.9531C124.879 66.8438 124.533 66.6797 124.221 66.4609C123.912 66.2422 123.664 65.9727 123.477 65.6523C123.293 65.3281 123.201 64.9531 123.201 64.5273H124.338C124.338 64.8203 124.395 65.0723 124.508 65.2832C124.621 65.4941 124.775 65.668 124.971 65.8047C125.166 65.9414 125.389 66.043 125.639 66.1094C125.889 66.1719 126.15 66.2031 126.424 66.2031C126.818 66.2031 127.15 66.1484 127.42 66.0391C127.693 65.9258 127.9 65.7676 128.041 65.5645C128.186 65.3613 128.258 65.1211 128.258 64.8438C128.258 64.5742 128.201 64.3457 128.088 64.1582C127.975 63.9707 127.771 63.8008 127.479 63.6484C127.186 63.4961 126.77 63.3418 126.23 63.1855C125.809 63.0645 125.428 62.9277 125.088 62.7754C124.752 62.6191 124.463 62.4414 124.221 62.2422C123.979 62.043 123.793 61.8145 123.664 61.5566C123.535 61.2988 123.471 61.0039 123.471 60.6719C123.471 60.2266 123.59 59.8301 123.828 59.4824C124.07 59.1309 124.408 58.8555 124.842 58.6562C125.275 58.4531 125.783 58.3516 126.365 58.3516C127.01 58.3516 127.557 58.4746 128.006 58.7207C128.455 58.9629 128.797 59.2812 129.031 59.6758C129.266 60.0664 129.383 60.4844 129.383 60.9297H128.24C128.24 60.6094 128.172 60.3242 128.035 60.0742C127.902 59.8242 127.697 59.6289 127.42 59.4883C127.143 59.3438 126.791 59.2715 126.365 59.2715C125.967 59.2715 125.637 59.332 125.375 59.4531C125.117 59.5742 124.926 59.7383 124.801 59.9453C124.676 60.1523 124.613 60.3887 124.613 60.6543C124.613 60.8926 124.682 61.1055 124.818 61.293C124.955 61.4766 125.17 61.6426 125.463 61.791C125.756 61.9395 126.135 62.0801 126.6 62.2129C127.244 62.3926 127.773 62.6016 128.188 62.8398C128.602 63.0781 128.906 63.3594 129.102 63.6836C129.301 64.0078 129.4 64.3906 129.4 64.832C129.4 65.293 129.277 65.6953 129.031 66.0391C128.785 66.3828 128.439 66.6484 127.994 66.8359C127.549 67.0234 127.025 67.1172 126.424 67.1172ZM133.309 67.1172C132.719 67.1172 132.205 66.9863 131.768 66.7246C131.334 66.459 130.996 66.0957 130.754 65.6348C130.516 65.1738 130.396 64.6465 130.396 64.0527V63.8008C130.396 63.1133 130.527 62.5273 130.789 62.043C131.055 61.5547 131.398 61.1836 131.82 60.9297C132.246 60.6719 132.695 60.543 133.168 60.543C133.777 60.543 134.273 60.6797 134.656 60.9531C135.043 61.2227 135.326 61.5918 135.506 62.0605C135.689 62.5254 135.781 63.0527 135.781 63.6426V64.1289H131.047V63.25H134.686V63.168C134.67 62.8867 134.613 62.6133 134.516 62.3477C134.418 62.0781 134.262 61.8574 134.047 61.6855C133.832 61.5098 133.539 61.4219 133.168 61.4219C132.84 61.4219 132.549 61.5156 132.295 61.7031C132.045 61.8867 131.848 62.1562 131.703 62.5117C131.562 62.8633 131.492 63.293 131.492 63.8008V64.0527C131.492 64.4551 131.566 64.8223 131.715 65.1543C131.863 65.4824 132.078 65.7461 132.359 65.9453C132.641 66.1406 132.977 66.2383 133.367 66.2383C133.75 66.2383 134.074 66.1602 134.34 66.0039C134.605 65.8477 134.838 65.6387 135.037 65.377L135.699 65.8926C135.496 66.2051 135.203 66.4883 134.82 66.7422C134.441 66.9922 133.938 67.1172 133.309 67.1172ZM139.59 67.1172C138.953 67.1172 138.426 66.9727 138.008 66.6836C137.59 66.3906 137.277 66.0039 137.07 65.5234C136.867 65.043 136.766 64.5195 136.766 63.9531V63.707C136.766 63.1367 136.869 62.6133 137.076 62.1367C137.283 61.6562 137.596 61.2715 138.014 60.9824C138.432 60.6895 138.957 60.543 139.59 60.543C140.086 60.543 140.52 60.6445 140.891 60.8477C141.266 61.0469 141.559 61.3203 141.77 61.668C141.984 62.0117 142.102 62.4023 142.121 62.8398H141.084C141.064 62.5781 140.99 62.3398 140.861 62.125C140.736 61.9102 140.564 61.7402 140.346 61.6152C140.131 61.4863 139.879 61.4219 139.59 61.4219C139.148 61.4219 138.801 61.5352 138.547 61.7617C138.297 61.9883 138.119 62.2773 138.014 62.6289C137.912 62.9766 137.861 63.3359 137.861 63.707V63.9531C137.861 64.3242 137.912 64.6855 138.014 65.0371C138.115 65.3887 138.291 65.6777 138.541 65.9043C138.795 66.127 139.145 66.2383 139.59 66.2383C139.848 66.2383 140.086 66.1855 140.305 66.0801C140.523 65.9707 140.703 65.8223 140.844 65.6348C140.984 65.4473 141.064 65.2344 141.084 64.9961H142.121C142.102 65.3711 141.975 65.7207 141.74 66.0449C141.506 66.3652 141.201 66.625 140.826 66.8242C140.451 67.0195 140.039 67.1172 139.59 67.1172ZM147.219 60.6602H148.314V67H147.271L147.219 65.5352V60.6602ZM147.881 64.1875C147.881 64.75 147.801 65.252 147.641 65.6934C147.48 66.1348 147.219 66.4824 146.855 66.7363C146.492 66.9902 146.006 67.1172 145.396 67.1172C144.775 67.1172 144.273 66.9336 143.891 66.5664C143.508 66.1992 143.316 65.5938 143.316 64.75V60.6602H144.412V64.7617C144.412 65.1445 144.467 65.4414 144.576 65.6523C144.689 65.8594 144.834 66.0039 145.01 66.0859C145.189 66.1641 145.377 66.2031 145.572 66.2031C146.033 66.2031 146.398 66.1152 146.668 65.9395C146.938 65.7598 147.131 65.5176 147.248 65.2129C147.365 64.9082 147.424 64.5703 147.424 64.1992L147.881 64.1875ZM151.057 67H149.961V60.6602H151.027L151.057 61.6562V67ZM153.031 61.627C152.938 61.6074 152.85 61.5957 152.768 61.5918C152.689 61.584 152.6 61.5801 152.498 61.5801C152.166 61.5801 151.885 61.6484 151.654 61.7852C151.428 61.9219 151.252 62.1113 151.127 62.3535C151.002 62.5918 150.924 62.8652 150.893 63.1738L150.582 63.3496C150.582 62.8379 150.65 62.3711 150.787 61.9492C150.924 61.5234 151.137 61.1836 151.426 60.9297C151.719 60.6719 152.094 60.543 152.551 60.543C152.625 60.543 152.713 60.5527 152.814 60.5723C152.92 60.5879 152.992 60.6055 153.031 60.625V61.627ZM154.701 58.3574C154.912 58.3574 155.072 58.418 155.182 58.5391C155.295 58.6602 155.352 58.8066 155.352 58.9785C155.352 59.1465 155.295 59.291 155.182 59.4121C155.072 59.5293 154.912 59.5879 154.701 59.5879C154.49 59.5879 154.33 59.5293 154.221 59.4121C154.115 59.291 154.062 59.1465 154.062 58.9785C154.062 58.8066 154.115 58.6602 154.221 58.5391C154.33 58.418 154.49 58.3574 154.701 58.3574ZM155.252 67H154.162V60.6602H155.252V67ZM159.693 61.4863H156.26V60.6602H159.693V61.4863ZM158.51 59.1191V65.4297C158.51 65.6484 158.543 65.8125 158.609 65.9219C158.676 66.0312 158.762 66.1035 158.867 66.1387C158.973 66.1738 159.086 66.1914 159.207 66.1914C159.297 66.1914 159.391 66.1836 159.488 66.168C159.59 66.1523 159.664 66.1387 159.711 66.127V67C159.625 67.0273 159.514 67.0527 159.377 67.0762C159.24 67.1035 159.074 67.1172 158.879 67.1172C158.613 67.1172 158.369 67.0645 158.146 66.959C157.924 66.8535 157.746 66.6777 157.613 66.4316C157.48 66.1816 157.414 65.8457 157.414 65.4238V59.1191H158.51ZM164.498 60.6602H165.664L163.121 67.9785C163.062 68.1348 162.984 68.3027 162.887 68.4824C162.793 68.666 162.672 68.8398 162.523 69.0039C162.379 69.168 162.201 69.3008 161.99 69.4023C161.779 69.5078 161.529 69.5605 161.24 69.5605C161.182 69.5605 161.111 69.5547 161.029 69.543C160.947 69.5312 160.869 69.5176 160.795 69.502C160.721 69.4902 160.664 69.4785 160.625 69.4668V68.5938C160.656 68.5977 160.705 68.6035 160.771 68.6113C160.842 68.6191 160.891 68.623 160.918 68.623C161.285 68.623 161.572 68.5469 161.779 68.3945C161.986 68.2422 162.154 67.9707 162.283 67.5801L162.734 66.3438L164.498 60.6602ZM163.092 65.5879L163.373 66.7305L162.588 67.123L160.262 60.6602H161.457L163.092 65.5879ZM173.352 62.6523C173.352 62.2734 173.238 61.9727 173.012 61.75C172.789 61.5234 172.459 61.4102 172.021 61.4102C171.752 61.4102 171.514 61.457 171.307 61.5508C171.104 61.6445 170.945 61.7676 170.832 61.9199C170.719 62.0723 170.662 62.2383 170.662 62.418H169.566C169.566 62.1133 169.67 61.8184 169.877 61.5332C170.084 61.2441 170.375 61.0078 170.75 60.8242C171.129 60.6367 171.574 60.543 172.086 60.543C172.547 60.543 172.955 60.6211 173.311 60.7773C173.666 60.9336 173.943 61.1699 174.143 61.4863C174.346 61.7988 174.447 62.1914 174.447 62.6641V65.6172C174.447 65.8281 174.465 66.0527 174.5 66.291C174.539 66.5293 174.596 66.7344 174.67 66.9062V67H173.527C173.473 66.875 173.43 66.709 173.398 66.502C173.367 66.291 173.352 66.0957 173.352 65.916V62.6523ZM173.539 63.918H172.461C171.844 63.918 171.367 64.0156 171.031 64.2109C170.695 64.4062 170.527 64.6992 170.527 65.0898C170.527 65.3945 170.629 65.6523 170.832 65.8633C171.039 66.0742 171.34 66.1797 171.734 66.1797C172.066 66.1797 172.359 66.1094 172.613 65.9688C172.867 65.8281 173.068 65.6543 173.217 65.4473C173.365 65.2402 173.445 65.041 173.457 64.8496L173.926 65.3711C173.898 65.5352 173.824 65.7168 173.703 65.916C173.582 66.1152 173.42 66.3066 173.217 66.4902C173.018 66.6699 172.779 66.8203 172.502 66.9414C172.229 67.0586 171.92 67.1172 171.576 67.1172C171.146 67.1172 170.77 67.0352 170.445 66.8711C170.125 66.7031 169.875 66.4766 169.695 66.1914C169.52 65.9062 169.432 65.5898 169.432 65.2422C169.432 64.5586 169.689 64.041 170.205 63.6895C170.721 63.334 171.414 63.1562 172.285 63.1562H173.539V63.918ZM179.387 60.6602H180.107L179.967 61.7031L178.309 67H177.611L177.758 65.8633L179.387 60.6602ZM178.062 65.9219L178.156 67H177.424L175.584 60.6602H176.674L178.062 65.9219ZM182.984 60.6602H184.068L182.229 67H181.502L181.66 65.8867L182.984 60.6602ZM181.865 65.7812L182.041 67H181.344L179.639 61.6914L179.504 60.6602H180.271L181.865 65.7812ZM188.914 62.6523C188.914 62.2734 188.801 61.9727 188.574 61.75C188.352 61.5234 188.021 61.4102 187.584 61.4102C187.314 61.4102 187.076 61.457 186.869 61.5508C186.666 61.6445 186.508 61.7676 186.395 61.9199C186.281 62.0723 186.225 62.2383 186.225 62.418H185.129C185.129 62.1133 185.232 61.8184 185.439 61.5332C185.646 61.2441 185.938 61.0078 186.312 60.8242C186.691 60.6367 187.137 60.543 187.648 60.543C188.109 60.543 188.518 60.6211 188.873 60.7773C189.229 60.9336 189.506 61.1699 189.705 61.4863C189.908 61.7988 190.01 62.1914 190.01 62.6641V65.6172C190.01 65.8281 190.027 66.0527 190.062 66.291C190.102 66.5293 190.158 66.7344 190.232 66.9062V67H189.09C189.035 66.875 188.992 66.709 188.961 66.502C188.93 66.291 188.914 66.0957 188.914 65.916V62.6523ZM189.102 63.918H188.023C187.406 63.918 186.93 64.0156 186.594 64.2109C186.258 64.4062 186.09 64.6992 186.09 65.0898C186.09 65.3945 186.191 65.6523 186.395 65.8633C186.602 66.0742 186.902 66.1797 187.297 66.1797C187.629 66.1797 187.922 66.1094 188.176 65.9688C188.43 65.8281 188.631 65.6543 188.779 65.4473C188.928 65.2402 189.008 65.041 189.02 64.8496L189.488 65.3711C189.461 65.5352 189.387 65.7168 189.266 65.916C189.145 66.1152 188.982 66.3066 188.779 66.4902C188.58 66.6699 188.342 66.8203 188.064 66.9414C187.791 67.0586 187.482 67.1172 187.139 67.1172C186.709 67.1172 186.332 67.0352 186.008 66.8711C185.688 66.7031 185.438 66.4766 185.258 66.1914C185.082 65.9062 184.994 65.5898 184.994 65.2422C184.994 64.5586 185.252 64.041 185.768 63.6895C186.283 63.334 186.977 63.1562 187.848 63.1562H189.102V63.918ZM192.811 67H191.715V60.6602H192.781L192.811 61.6562V67ZM194.785 61.627C194.691 61.6074 194.604 61.5957 194.521 61.5918C194.443 61.584 194.354 61.5801 194.252 61.5801C193.92 61.5801 193.639 61.6484 193.408 61.7852C193.182 61.9219 193.006 62.1113 192.881 62.3535C192.756 62.5918 192.678 62.8652 192.646 63.1738L192.336 63.3496C192.336 62.8379 192.404 62.3711 192.541 61.9492C192.678 61.5234 192.891 61.1836 193.18 60.9297C193.473 60.6719 193.848 60.543 194.305 60.543C194.379 60.543 194.467 60.5527 194.568 60.5723C194.674 60.5879 194.746 60.6055 194.785 60.625V61.627ZM198.418 67.1172C197.828 67.1172 197.314 66.9863 196.877 66.7246C196.443 66.459 196.105 66.0957 195.863 65.6348C195.625 65.1738 195.506 64.6465 195.506 64.0527V63.8008C195.506 63.1133 195.637 62.5273 195.898 62.043C196.164 61.5547 196.508 61.1836 196.93 60.9297C197.355 60.6719 197.805 60.543 198.277 60.543C198.887 60.543 199.383 60.6797 199.766 60.9531C200.152 61.2227 200.436 61.5918 200.615 62.0605C200.799 62.5254 200.891 63.0527 200.891 63.6426V64.1289H196.156V63.25H199.795V63.168C199.779 62.8867 199.723 62.6133 199.625 62.3477C199.527 62.0781 199.371 61.8574 199.156 61.6855C198.941 61.5098 198.648 61.4219 198.277 61.4219C197.949 61.4219 197.658 61.5156 197.404 61.7031C197.154 61.8867 196.957 62.1562 196.812 62.5117C196.672 62.8633 196.602 63.293 196.602 63.8008V64.0527C196.602 64.4551 196.676 64.8223 196.824 65.1543C196.973 65.4824 197.188 65.7461 197.469 65.9453C197.75 66.1406 198.086 66.2383 198.477 66.2383C198.859 66.2383 199.184 66.1602 199.449 66.0039C199.715 65.8477 199.947 65.6387 200.146 65.377L200.809 65.8926C200.605 66.2051 200.312 66.4883 199.93 66.7422C199.551 66.9922 199.047 67.1172 198.418 67.1172ZM203.252 67H202.156V60.6602H203.193L203.252 62.0137V67ZM202.537 63.5664C202.545 62.9883 202.656 62.4727 202.871 62.0195C203.086 61.5625 203.385 61.2031 203.768 60.9414C204.154 60.6758 204.604 60.543 205.115 60.543C205.533 60.543 205.893 60.6211 206.193 60.7773C206.498 60.9297 206.732 61.1738 206.896 61.5098C207.064 61.8457 207.148 62.291 207.148 62.8457V67H206.053V62.834C206.053 62.502 206.004 62.2344 205.906 62.0312C205.812 61.8281 205.672 61.6816 205.484 61.5918C205.297 61.498 205.066 61.4512 204.793 61.4512C204.523 61.4512 204.279 61.5078 204.061 61.6211C203.842 61.7344 203.652 61.8906 203.492 62.0898C203.332 62.2891 203.209 62.5176 203.123 62.7754C203.037 63.0293 202.994 63.2988 202.994 63.584L202.537 63.5664ZM211.426 67.1172C210.836 67.1172 210.322 66.9863 209.885 66.7246C209.451 66.459 209.113 66.0957 208.871 65.6348C208.633 65.1738 208.514 64.6465 208.514 64.0527V63.8008C208.514 63.1133 208.645 62.5273 208.906 62.043C209.172 61.5547 209.516 61.1836 209.938 60.9297C210.363 60.6719 210.812 60.543 211.285 60.543C211.895 60.543 212.391 60.6797 212.773 60.9531C213.16 61.2227 213.443 61.5918 213.623 62.0605C213.807 62.5254 213.898 63.0527 213.898 63.6426V64.1289H209.164V63.25H212.803V63.168C212.787 62.8867 212.73 62.6133 212.633 62.3477C212.535 62.0781 212.379 61.8574 212.164 61.6855C211.949 61.5098 211.656 61.4219 211.285 61.4219C210.957 61.4219 210.666 61.5156 210.412 61.7031C210.162 61.8867 209.965 62.1562 209.82 62.5117C209.68 62.8633 209.609 63.293 209.609 63.8008V64.0527C209.609 64.4551 209.684 64.8223 209.832 65.1543C209.98 65.4824 210.195 65.7461 210.477 65.9453C210.758 66.1406 211.094 66.2383 211.484 66.2383C211.867 66.2383 212.191 66.1602 212.457 66.0039C212.723 65.8477 212.955 65.6387 213.154 65.377L213.816 65.8926C213.613 66.2051 213.32 66.4883 212.938 66.7422C212.559 66.9922 212.055 67.1172 211.426 67.1172ZM217.496 67.1172C216.938 67.1172 216.465 67.0176 216.078 66.8184C215.691 66.6191 215.398 66.3633 215.199 66.0508C215 65.7344 214.9 65.4004 214.9 65.0488H215.996C216.016 65.3457 216.102 65.582 216.254 65.7578C216.41 65.9297 216.6 66.0527 216.822 66.127C217.049 66.2012 217.273 66.2383 217.496 66.2383C217.793 66.2383 218.041 66.1992 218.24 66.1211C218.443 66.0391 218.596 65.9297 218.697 65.793C218.803 65.6523 218.855 65.4941 218.855 65.3184C218.855 65.1621 218.82 65.0176 218.75 64.8848C218.684 64.748 218.547 64.625 218.34 64.5156C218.133 64.4023 217.82 64.3027 217.402 64.2168C216.934 64.1191 216.527 63.9961 216.184 63.8477C215.844 63.6953 215.58 63.502 215.393 63.2676C215.209 63.0332 215.117 62.7422 215.117 62.3945C215.117 62.0586 215.213 61.752 215.404 61.4746C215.6 61.1934 215.873 60.9688 216.225 60.8008C216.58 60.6289 216.994 60.543 217.467 60.543C217.975 60.543 218.408 60.6328 218.768 60.8125C219.131 60.9883 219.408 61.2266 219.6 61.5273C219.791 61.8242 219.887 62.1543 219.887 62.5176H218.791C218.791 62.2559 218.676 62.0078 218.445 61.7734C218.219 61.5391 217.893 61.4219 217.467 61.4219C217.17 61.4219 216.928 61.4688 216.74 61.5625C216.557 61.6523 216.422 61.7695 216.336 61.9141C216.254 62.0547 216.213 62.2031 216.213 62.3594C216.213 62.5156 216.252 62.6523 216.33 62.7695C216.408 62.8828 216.551 62.9844 216.758 63.0742C216.969 63.1641 217.273 63.2539 217.672 63.3438C218.191 63.4609 218.619 63.6016 218.955 63.7656C219.291 63.9297 219.541 64.1309 219.705 64.3691C219.869 64.6074 219.951 64.8984 219.951 65.2422C219.951 65.6094 219.85 65.9355 219.646 66.2207C219.443 66.502 219.158 66.7227 218.791 66.8828C218.424 67.0391 217.992 67.1172 217.496 67.1172ZM223.695 67.1172C223.137 67.1172 222.664 67.0176 222.277 66.8184C221.891 66.6191 221.598 66.3633 221.398 66.0508C221.199 65.7344 221.1 65.4004 221.1 65.0488H222.195C222.215 65.3457 222.301 65.582 222.453 65.7578C222.609 65.9297 222.799 66.0527 223.021 66.127C223.248 66.2012 223.473 66.2383 223.695 66.2383C223.992 66.2383 224.24 66.1992 224.439 66.1211C224.643 66.0391 224.795 65.9297 224.896 65.793C225.002 65.6523 225.055 65.4941 225.055 65.3184C225.055 65.1621 225.02 65.0176 224.949 64.8848C224.883 64.748 224.746 64.625 224.539 64.5156C224.332 64.4023 224.02 64.3027 223.602 64.2168C223.133 64.1191 222.727 63.9961 222.383 63.8477C222.043 63.6953 221.779 63.502 221.592 63.2676C221.408 63.0332 221.316 62.7422 221.316 62.3945C221.316 62.0586 221.412 61.752 221.604 61.4746C221.799 61.1934 222.072 60.9688 222.424 60.8008C222.779 60.6289 223.193 60.543 223.666 60.543C224.174 60.543 224.607 60.6328 224.967 60.8125C225.33 60.9883 225.607 61.2266 225.799 61.5273C225.99 61.8242 226.086 62.1543 226.086 62.5176H224.99C224.99 62.2559 224.875 62.0078 224.645 61.7734C224.418 61.5391 224.092 61.4219 223.666 61.4219C223.369 61.4219 223.127 61.4688 222.939 61.5625C222.756 61.6523 222.621 61.7695 222.535 61.9141C222.453 62.0547 222.412 62.2031 222.412 62.3594C222.412 62.5156 222.451 62.6523 222.529 62.7695C222.607 62.8828 222.75 62.9844 222.957 63.0742C223.168 63.1641 223.473 63.2539 223.871 63.3438C224.391 63.4609 224.818 63.6016 225.154 63.7656C225.49 63.9297 225.74 64.1309 225.904 64.3691C226.068 64.6074 226.15 64.8984 226.15 65.2422C226.15 65.6094 226.049 65.9355 225.846 66.2207C225.643 66.502 225.357 66.7227 224.99 66.8828C224.623 67.0391 224.191 67.1172 223.695 67.1172ZM231.213 58.3574C231.424 58.3574 231.584 58.418 231.693 58.5391C231.807 58.6602 231.863 58.8066 231.863 58.9785C231.863 59.1465 231.807 59.291 231.693 59.4121C231.584 59.5293 231.424 59.5879 231.213 59.5879C231.002 59.5879 230.842 59.5293 230.732 59.4121C230.627 59.291 230.574 59.1465 230.574 58.9785C230.574 58.8066 230.627 58.6602 230.732 58.5391C230.842 58.418 231.002 58.3574 231.213 58.3574ZM231.764 67H230.674V60.6602H231.764V67ZM234.635 67H233.539V60.6602H234.576L234.635 62.0137V67ZM233.92 63.5664C233.928 62.9883 234.039 62.4727 234.254 62.0195C234.469 61.5625 234.768 61.2031 235.15 60.9414C235.537 60.6758 235.986 60.543 236.498 60.543C236.916 60.543 237.275 60.6211 237.576 60.7773C237.881 60.9297 238.115 61.1738 238.279 61.5098C238.447 61.8457 238.531 62.291 238.531 62.8457V67H237.436V62.834C237.436 62.502 237.387 62.2344 237.289 62.0312C237.195 61.8281 237.055 61.6816 236.867 61.5918C236.68 61.498 236.449 61.4512 236.176 61.4512C235.906 61.4512 235.662 61.5078 235.443 61.6211C235.225 61.7344 235.035 61.8906 234.875 62.0898C234.715 62.2891 234.592 62.5176 234.506 62.7754C234.42 63.0293 234.377 63.2988 234.377 63.584L233.92 63.5664ZM246.055 67.1172C245.648 67.1172 245.291 67.0508 244.982 66.918C244.674 66.7852 244.412 66.5938 244.197 66.3438C243.982 66.0898 243.811 65.7871 243.682 65.4355C243.557 65.0801 243.471 64.6797 243.424 64.2344V63.5547C243.486 62.9336 243.621 62.3984 243.828 61.9492C244.039 61.5 244.326 61.1543 244.689 60.9121C245.057 60.666 245.506 60.543 246.037 60.543C246.568 60.543 247.018 60.6777 247.385 60.9473C247.752 61.2168 248.031 61.5957 248.223 62.084C248.414 62.5684 248.51 63.1328 248.51 63.7773V63.9004C248.51 64.5176 248.414 65.0684 248.223 65.5527C248.031 66.0371 247.752 66.4199 247.385 66.7012C247.021 66.9785 246.578 67.1172 246.055 67.1172ZM243.148 69.4375V60.6602H244.145L244.244 61.8789V69.4375H243.148ZM245.721 66.2383C246.111 66.2383 246.432 66.1309 246.682 65.916C246.932 65.7012 247.115 65.418 247.232 65.0664C247.354 64.7109 247.414 64.3223 247.414 63.9004V63.7773C247.414 63.3555 247.354 62.9688 247.232 62.6172C247.115 62.2617 246.93 61.9785 246.676 61.7676C246.426 61.5566 246.104 61.4512 245.709 61.4512C245.439 61.4512 245.205 61.498 245.006 61.5918C244.807 61.6855 244.637 61.8125 244.496 61.9727C244.355 62.1289 244.24 62.3086 244.15 62.5117C244.064 62.7109 244 62.918 243.957 63.1328V64.6621C244.035 64.9355 244.143 65.1934 244.279 65.4355C244.42 65.6738 244.605 65.8672 244.836 66.0156C245.07 66.1641 245.365 66.2383 245.721 66.2383ZM253.766 60.6602H254.861V67H253.818L253.766 65.5352V60.6602ZM254.428 64.1875C254.428 64.75 254.348 65.252 254.188 65.6934C254.027 66.1348 253.766 66.4824 253.402 66.7363C253.039 66.9902 252.553 67.1172 251.943 67.1172C251.322 67.1172 250.82 66.9336 250.438 66.5664C250.055 66.1992 249.863 65.5938 249.863 64.75V60.6602H250.959V64.7617C250.959 65.1445 251.014 65.4414 251.123 65.6523C251.236 65.8594 251.381 66.0039 251.557 66.0859C251.736 66.1641 251.924 66.2031 252.119 66.2031C252.58 66.2031 252.945 66.1152 253.215 65.9395C253.484 65.7598 253.678 65.5176 253.795 65.2129C253.912 64.9082 253.971 64.5703 253.971 64.1992L254.428 64.1875ZM259.42 67.1172C258.881 67.1172 258.432 66.9961 258.072 66.7539C257.713 66.5078 257.434 66.1621 257.234 65.7168C257.035 65.2676 256.904 64.7363 256.842 64.123V63.5547C256.904 62.9336 257.035 62.3984 257.234 61.9492C257.434 61.5 257.711 61.1543 258.066 60.9121C258.426 60.666 258.873 60.543 259.408 60.543C259.939 60.543 260.389 60.6777 260.756 60.9473C261.123 61.2168 261.402 61.5957 261.594 62.084C261.785 62.5684 261.881 63.1328 261.881 63.7773V63.9004C261.881 64.5176 261.785 65.0684 261.594 65.5527C261.402 66.0371 261.123 66.4199 260.756 66.7012C260.389 66.9785 259.943 67.1172 259.42 67.1172ZM256.508 67V58H257.604V65.7695L257.51 67H256.508ZM259.145 66.2031C259.535 66.2031 259.85 66.0996 260.088 65.8926C260.33 65.6816 260.506 65.4023 260.615 65.0547C260.729 64.707 260.785 64.3223 260.785 63.9004V63.7773C260.785 63.3555 260.732 62.9688 260.627 62.6172C260.521 62.2617 260.348 61.9785 260.105 61.7676C259.867 61.5566 259.543 61.4512 259.133 61.4512C258.863 61.4512 258.627 61.498 258.424 61.5918C258.225 61.6855 258.055 61.8125 257.914 61.9727C257.773 62.1289 257.658 62.3086 257.568 62.5117C257.482 62.7109 257.418 62.918 257.375 63.1328V64.5566C257.438 64.8301 257.539 65.0938 257.68 65.3477C257.82 65.5977 258.01 65.8027 258.248 65.9629C258.49 66.123 258.789 66.2031 259.145 66.2031ZM264.436 67H263.34V58H264.436V67ZM266.838 58.3574C267.049 58.3574 267.209 58.418 267.318 58.5391C267.432 58.6602 267.488 58.8066 267.488 58.9785C267.488 59.1465 267.432 59.291 267.318 59.4121C267.209 59.5293 267.049 59.5879 266.838 59.5879C266.627 59.5879 266.467 59.5293 266.357 59.4121C266.252 59.291 266.199 59.1465 266.199 58.9785C266.199 58.8066 266.252 58.6602 266.357 58.5391C266.467 58.418 266.627 58.3574 266.838 58.3574ZM267.389 67H266.299V60.6602H267.389V67ZM271.707 67.1172C271.07 67.1172 270.543 66.9727 270.125 66.6836C269.707 66.3906 269.395 66.0039 269.188 65.5234C268.984 65.043 268.883 64.5195 268.883 63.9531V63.707C268.883 63.1367 268.986 62.6133 269.193 62.1367C269.4 61.6562 269.713 61.2715 270.131 60.9824C270.549 60.6895 271.074 60.543 271.707 60.543C272.203 60.543 272.637 60.6445 273.008 60.8477C273.383 61.0469 273.676 61.3203 273.887 61.668C274.102 62.0117 274.219 62.4023 274.238 62.8398H273.201C273.182 62.5781 273.107 62.3398 272.979 62.125C272.854 61.9102 272.682 61.7402 272.463 61.6152C272.248 61.4863 271.996 61.4219 271.707 61.4219C271.266 61.4219 270.918 61.5352 270.664 61.7617C270.414 61.9883 270.236 62.2773 270.131 62.6289C270.029 62.9766 269.979 63.3359 269.979 63.707V63.9531C269.979 64.3242 270.029 64.6855 270.131 65.0371C270.232 65.3887 270.408 65.6777 270.658 65.9043C270.912 66.127 271.262 66.2383 271.707 66.2383C271.965 66.2383 272.203 66.1855 272.422 66.0801C272.641 65.9707 272.82 65.8223 272.961 65.6348C273.102 65.4473 273.182 65.2344 273.201 64.9961H274.238C274.219 65.3711 274.092 65.7207 273.857 66.0449C273.623 66.3652 273.318 66.625 272.943 66.8242C272.568 67.0195 272.156 67.1172 271.707 67.1172Z" fill="#24292D"/>
<path d="M24.3235 0.010018C24.5999 0.0067312 24.8764 0.00344438 25.1612 5.79629e-05C27.6223 -0.00458568 29.9514 0.268824 32.258 1.16748C32.629 1.30968 32.629 1.30968 33.0076 1.45475C33.1865 1.52602 33.3653 1.59729 33.5496 1.67073C32.6819 2.35359 31.7661 2.9056 30.8153 3.46563C26.2843 6.23319 23.8172 10.1268 22.4615 15.2248C22.0659 17.2631 22.078 19.2579 22.7062 21.2145C22.7743 21.4266 22.8297 21.6442 22.8443 21.8664C23.0235 24.5945 21.4143 26.4873 19.7775 28.5943C19.6293 28.7773 19.4812 28.9604 19.3285 29.1489C18.9024 29.6891 18.557 30.1328 18.3091 30.6873C18.1078 31.1377 18.1063 31.6791 18.4199 32.06C18.8787 32.6172 19.6112 32.8983 20.3045 33.2414C20.4564 33.3166 20.5996 33.4092 20.7326 33.5143C21.1083 33.8112 21.2019 33.925 21.3364 34.3307C21.4209 34.5854 21.4651 34.8533 21.4601 35.1215C21.4529 35.5084 21.3847 35.5795 21.0692 35.9081V35.9081C20.8111 36.1554 20.6345 36.4953 20.6653 36.8513C20.6815 37.0389 20.7298 37.1738 20.8468 37.4388C20.9037 37.5678 20.9961 37.6787 21.1126 37.7583C21.3094 37.8928 21.4165 37.9593 21.5514 38.0166C21.7772 38.1125 21.8904 38.3647 21.7619 38.5736V38.5736C21.7518 38.59 21.7363 38.6179 21.729 38.6357C21.5066 39.1745 21.451 39.6402 21.4506 40.1561C21.4503 40.5819 21.7286 40.9555 22.126 41.1083V41.1083V41.1083C22.7858 41.3819 23.0797 42.0647 23.0612 42.7787C23.0477 43.302 23.0284 43.8249 23.0009 44.3485C22.9807 45.1646 22.9868 45.6646 23.3513 46.2696C23.4944 46.5071 23.6985 46.7033 23.9376 46.8439C25.1666 47.5662 26.4449 47.418 27.9133 47.2982C28.6871 47.1485 29.4482 46.9576 30.2115 46.7614C33.0318 46.0474 33.5654 45.9123 34.593 46.07C35.1485 46.1553 35.6975 46.3475 36.1119 46.7273C36.8802 47.4315 37.0475 48.2384 37.2974 49.3655C37.4677 50.1341 37.5756 50.9179 37.5756 51.7051C37.5756 53.3489 37.5756 55.0005 37.5756 56.6921C37.5756 61.8636 28.4258 57.8851 22.1451 56.8986C20.8735 56.6988 19.8109 55.6828 19.7466 54.3972C19.6996 53.4571 19.6523 52.5106 19.6043 51.5498C19.5968 51.3996 19.5777 51.2498 19.5474 51.1025C19.1223 49.037 19.0372 48.715 18.1712 47.2547C17.8846 46.7714 17.3923 46.4347 16.8311 46.4057C15.3571 46.3293 13.9658 46.602 12.514 47.0298C10.7091 47.5474 8.88318 47.9225 7.02031 47.6228C6.81419 47.5897 6.61724 47.5128 6.43779 47.4061C5.92616 47.102 5.77487 46.9882 5.4308 46.6037C5.21089 46.358 5.05905 46.0548 5.03098 45.7262C4.97977 45.1268 5.036 44.5434 5.09955 43.9265C5.15103 43.4241 5.16884 42.989 5.15604 42.5337C5.14032 41.9742 4.87328 41.4408 4.41852 41.1146C4.33711 41.0561 4.25951 41.0054 4.17288 40.9537C3.75413 40.7038 3.41455 40.3054 3.4073 39.8179C3.40086 39.3848 3.49505 39.0624 3.73175 38.6438C3.87554 38.3895 3.78744 38.0614 3.52271 37.9379V37.9379C3.14685 37.7389 3.01868 37.6711 2.82135 37.4943C2.55404 37.2548 2.39969 36.8857 2.48979 36.5383C2.50842 36.4665 2.53335 36.3947 2.56974 36.3024C2.63956 36.1254 2.78505 35.9919 2.9656 35.9317V35.9317C3.26754 35.831 3.46143 35.5276 3.40657 35.2141C3.27742 34.476 3.08329 33.988 2.39775 33.4139C1.97032 33.1361 1.53734 32.8665 1.09875 32.6066C0.839065 32.4502 0.699383 32.366 0.571278 32.2677C0.173054 31.9623 -0.0257454 31.4406 0.105405 30.9562C0.381493 29.9364 1.15105 29.1425 1.82846 28.2924C3.86683 25.8201 3.95972 25.7074 4.5573 22.9374C4.61654 22.6628 4.64239 22.3799 4.63402 22.0992C4.6316 22.0181 4.62917 21.9365 4.62671 21.854C4.59175 21.3891 4.5823 21.2635 4.46918 20.9347C4.35978 20.6168 4.28099 20.288 4.26275 19.9523C4.01472 15.3857 4.82162 11.3696 7.80134 7.69708C8.40178 7.00788 9.02249 6.34937 9.6623 5.69668C9.93009 5.41436 9.93009 5.41436 10.2033 5.12634C13.886 1.52798 19.308 0.0130875 24.3235 0.010018Z" fill="#008FE8"/>
<circle cx="28.9878" cy="37.8441" r="1.07359" fill="#3B83FF"/>
<circle cx="44.2867" cy="38.649" r="1.07359" fill="#3B83FF"/>
<circle cx="30.8673" cy="13.6883" r="3.22077" fill="#3B83FF"/>
<circle cx="27.6458" cy="28.4499" r="3.48916" fill="#3B83FF"/>
<circle cx="38.1138" cy="20.6666" r="2.68397" fill="#3B83FF"/>
<circle cx="36.7707" cy="32.2078" r="1.61038" fill="#3B83FF"/>
<circle cx="46.1641" cy="26.5714" r="1.87878" fill="#3B83FF"/>
<circle cx="49.1184" cy="17.4458" r="1.61038" fill="#3B83FF"/>
<circle cx="42.9447" cy="12.3463" r="1.61038" fill="#3B83FF"/>
<circle cx="40.5287" cy="4.29429" r="1.07359" fill="#3B83FF"/>
<line x1="29.3026" y1="29.3429" x2="37.6075" y2="32.1777" stroke="#3B83FF" stroke-width="1.07359"/>
<line x1="28.6862" y1="37.7796" x2="35.9378" y2="32.8377" stroke="#3B83FF" stroke-width="1.07359"/>
<line x1="37.0412" y1="31.0926" x2="37.7525" y2="21.9671" stroke="#3B83FF" stroke-width="1.07359"/>
<line x1="44.2923" y1="38.5654" x2="45.9991" y2="27.8295" stroke="#3B83FF" stroke-width="1.07359"/>
<line x1="38.5659" y1="20.5347" x2="32.3928" y2="15.1668" stroke="#3B83FF" stroke-width="1.07359"/>
<line x1="43.6619" y1="12.1041" x2="38.0255" y2="20.6928" stroke="#3B83FF" stroke-width="1.07359"/>
<line x1="42.6969" y1="11.957" x2="40.5498" y2="4.44192" stroke="#3B83FF" stroke-width="1.07359"/>
<line x1="49.5357" y1="17.1558" x2="38.5314" y2="20.3766" stroke="#3B83FF" stroke-width="1.07359"/>
<line x1="46.3727" y1="26.7277" x2="38.0524" y2="20.2861" stroke="#3B83FF" stroke-width="1.07359"/>
<path d="M86.9258 17.6396V21.9509H80.9858V40.0585H75.5247V21.9509H69.5847V17.6396H86.9258ZM100.621 22.0467C102.664 22.0467 104.304 22.728 105.539 24.0906C106.773 25.4319 107.391 27.2842 107.391 29.6474V40.0585H101.962V30.3819C101.962 29.1897 101.653 28.2635 101.036 27.6035C100.418 26.9435 99.5879 26.6135 98.5447 26.6135C97.5014 26.6135 96.6711 26.9435 96.0537 27.6035C95.4363 28.2635 95.1276 29.1897 95.1276 30.3819V40.0585H89.6665V16.426H95.1276V24.6335C95.6811 23.8458 96.4369 23.2177 97.395 22.7493C98.3531 22.2809 99.4282 22.0467 100.621 22.0467ZM113.932 20.3861C112.974 20.3861 112.186 20.1093 111.569 19.5557C110.973 18.9809 110.675 18.2783 110.675 17.448C110.675 16.5963 110.973 15.8938 111.569 15.3402C112.186 14.7654 112.974 14.4779 113.932 14.4779C114.869 14.4779 115.635 14.7654 116.232 15.3402C116.849 15.8938 117.158 16.5963 117.158 17.448C117.158 18.2783 116.849 18.9809 116.232 19.5557C115.635 20.1093 114.869 20.3861 113.932 20.3861ZM116.647 22.2383V40.0585H111.186V22.2383H116.647ZM131.462 22.0467C133.549 22.0467 135.21 22.728 136.444 24.0906C137.701 25.4319 138.329 27.2842 138.329 29.6474V40.0585H132.9V30.3819C132.9 29.1897 132.591 28.2635 131.973 27.6035C131.356 26.9435 130.526 26.6135 129.482 26.6135C128.439 26.6135 127.609 26.9435 126.991 27.6035C126.374 28.2635 126.065 29.1897 126.065 30.3819V40.0585H120.604V22.2383H126.065V24.6016C126.619 23.8138 127.364 23.1964 128.301 22.7493C129.238 22.2809 130.291 22.0467 131.462 22.0467ZM153.014 40.0585L147.585 32.5855V40.0585H142.123V16.426H147.585V29.4877L152.982 22.2383H159.72L152.311 31.1803L159.784 40.0585H153.014Z" fill="#008FE8"/>
<path d="M160.939 28.8171C160.939 26.6029 161.418 24.6335 162.376 22.909C163.334 21.1632 164.665 19.8112 166.368 18.8531C168.092 17.8738 170.041 17.3841 172.212 17.3841C174.874 17.3841 177.152 18.0867 179.046 19.4919C180.941 20.897 182.208 22.8132 182.847 25.2403H176.843C176.374 24.3248 175.736 23.6329 174.927 23.1645C174.118 22.6748 173.192 22.4299 172.148 22.4299C170.466 22.4299 169.104 23.0154 168.061 24.1864C167.017 25.3361 166.496 26.8797 166.496 28.8171C166.496 30.7545 167.017 32.3087 168.061 33.4797C169.104 34.6507 170.466 35.2362 172.148 35.2362C173.192 35.2362 174.118 34.9913 174.927 34.5017C175.736 34.012 176.374 33.3094 176.843 32.3939H182.847C182.208 34.821 180.941 36.7372 179.046 38.1423C177.152 39.5262 174.874 40.2182 172.212 40.2182C170.041 40.2182 168.092 39.7391 166.368 38.781C164.665 37.8017 163.334 36.4497 162.376 34.7252C161.418 33.0007 160.939 31.0313 160.939 28.8171ZM190.279 22.2383L194.399 33.3839L198.486 22.2383H204.394L193.217 48.5214H187.341L191.429 39.4517L184.179 22.2383H190.279ZM211.83 24.7612C212.341 23.9309 213.076 23.2603 214.034 22.7493C214.992 22.2383 216.088 21.9828 217.323 21.9828C218.792 21.9828 220.123 22.3554 221.315 23.1006C222.507 23.8458 223.444 24.9103 224.126 26.2942C224.828 27.678 225.179 29.2855 225.179 31.1165C225.179 32.9474 224.828 34.5655 224.126 35.9707C223.444 37.3546 222.507 38.4297 221.315 39.1962C220.123 39.9414 218.792 40.314 217.323 40.314C216.067 40.314 214.971 40.0691 214.034 39.5794C213.097 39.0685 212.363 38.3978 211.83 37.5675V40.0585H206.369V16.426H211.83V24.7612ZM219.623 31.1165C219.623 29.7539 219.239 28.6893 218.473 27.9229C217.728 27.1351 216.802 26.7413 215.694 26.7413C214.609 26.7413 213.683 27.1351 212.916 27.9229C212.171 28.7106 211.798 29.7858 211.798 31.1484C211.798 32.511 212.171 33.5862 212.916 34.3739C213.683 35.1617 214.609 35.5555 215.694 35.5555C216.78 35.5555 217.706 35.1617 218.473 34.3739C219.239 33.5649 219.623 32.4791 219.623 31.1165ZM244.843 30.829C244.843 31.3187 244.811 31.8403 244.747 32.3939H232.388C232.473 33.5223 232.824 34.3846 233.442 34.9807C234.059 35.5768 234.836 35.8749 235.773 35.8749C237.135 35.8749 238.083 35.3 238.615 34.1504H244.427C244.129 35.3213 243.586 36.3752 242.799 37.312C242.032 38.2488 241.064 38.9833 239.893 39.5156C238.722 40.0478 237.412 40.314 235.964 40.314C234.219 40.314 232.664 39.9414 231.302 39.1962C229.939 38.451 228.875 37.3865 228.108 36.0026C227.342 34.6187 226.959 33.0007 226.959 31.1484C226.959 29.2961 227.331 27.678 228.076 26.2942C228.843 24.9103 229.907 23.8458 231.27 23.1006C232.632 22.3554 234.197 21.9828 235.964 21.9828C237.689 21.9828 239.222 22.3448 240.563 23.0687C241.904 23.7925 242.948 24.8251 243.693 26.1664C244.459 27.5077 244.843 29.0619 244.843 30.829ZM239.254 29.6155C239.254 28.5935 238.934 27.7951 238.296 27.2203C237.657 26.6455 236.859 26.358 235.901 26.358C234.964 26.358 234.176 26.6455 233.537 27.2203C232.92 27.7739 232.537 28.5722 232.388 29.6155H239.254ZM253.185 25.4319C253.823 24.3887 254.622 23.569 255.58 22.9728C256.559 22.3554 257.624 22.0467 258.773 22.0467V27.8271H257.272C255.91 27.8271 254.888 28.1251 254.206 28.7213C253.525 29.2961 253.185 30.3181 253.185 31.7871V40.0585H247.724V22.2383H253.185V25.4319Z" fill="#3B83FF"/>
</svg>
