<svg width="22" height="21" viewBox="0 0 22 21" fill="none" xmlns="http://www.w3.org/2000/svg">
<path fill-rule="evenodd" clip-rule="evenodd" d="M0.503291 7.91542C0.389484 5.87808 3.25796 1.80905 4.38204 3.46281C4.38577 3.46747 4.38857 3.47214 4.39137 3.4768L6.73749 7.25215C6.76827 7.30159 6.99309 7.72977 7.00429 7.78761C7.18619 8.75591 6.22722 9.68223 5.49959 10.7512C5.40817 10.8856 5.32888 11.1085 5.4091 11.2494C6.05931 12.3828 6.64514 13.0787 7.5332 13.9668C8.42126 14.8549 9.11718 15.4407 10.2506 16.0909C10.3915 16.172 10.6144 16.0918 10.7488 16.0004C11.8178 15.2737 12.7441 14.3138 13.7124 14.4957C13.7702 14.5069 14.1984 14.7308 14.2478 14.7625L18.0232 17.1086C18.0279 17.1114 18.0325 17.1142 18.0372 17.118C19.6911 18.243 15.6231 21.1106 13.5846 20.9967C10.6348 20.8325 7.44644 19.0368 4.95374 16.5441C2.46295 14.0533 0.667341 10.8649 0.503039 7.91517L0.503291 7.91542ZM10.0063 1.59436C12.6575 1.59716 15.1397 2.60651 17.0165 4.48444C18.8944 6.36227 19.9037 8.80905 19.9066 11.4603C19.8945 11.9137 20.2695 12.285 20.721 12.2756C21.1613 12.2663 21.5102 11.9361 21.5008 11.4958C21.5036 8.42755 20.3152 5.5284 18.1444 3.35666C15.9708 1.18217 13.0771 0.000182783 10.0053 0.000182783C9.56493 -0.00914561 9.23471 0.339747 9.22539 0.780041C9.21607 1.23247 9.5529 1.60647 10.0063 1.59436ZM16.6313 11.4947C16.6313 11.935 16.9886 12.2923 17.4289 12.2923C17.8692 12.2923 18.2265 11.935 18.2265 11.4947C18.2255 10.0553 17.8776 8.68319 17.1668 7.42849C16.8057 6.79134 16.358 6.19993 15.829 5.67192C15.3001 5.143 14.7087 4.69523 14.0725 4.3342C12.8178 3.62336 11.4456 3.27541 10.0063 3.27448C9.56594 3.27448 9.20868 3.63177 9.20868 4.07206C9.20868 4.51235 9.56596 4.86964 10.0063 4.86964C11.7815 4.86777 13.4439 5.54222 14.7013 6.7997C15.9586 8.05718 16.6332 9.71963 16.6313 11.4947ZM10.0063 6.5394C9.56594 6.5394 9.20868 6.89668 9.20868 7.33697C9.20868 7.77727 9.56596 8.13455 10.0063 8.13455C10.9149 8.13455 11.7479 8.46385 12.3934 9.10937C13.038 9.75397 13.3673 10.5879 13.3673 11.4965C13.3673 11.9369 13.7246 12.2941 14.1649 12.2941C14.6052 12.2941 14.9625 11.9368 14.9625 11.4965C14.9625 10.1654 14.4643 8.92551 13.5212 7.98245C12.5753 7.03562 11.3384 6.54033 10.0063 6.5394Z" fill="#008FE8"/>
</svg>
