<svg width="60" height="60" viewBox="0 0 60 60" fill="none" xmlns="http://www.w3.org/2000/svg">
<path d="M29.6631 0.741211C45.6361 0.741211 58.5848 13.6902 58.585 29.6631C58.585 45.6362 45.6362 58.585 29.6631 58.585C13.6902 58.5848 0.741211 45.6361 0.741211 29.6631C0.741418 13.6903 13.6903 0.741418 29.6631 0.741211Z" fill="#457AEE"/>
<path d="M29.6631 0.741211C45.6361 0.741211 58.5848 13.6902 58.585 29.6631C58.585 45.6362 45.6362 58.585 29.6631 58.585C13.6902 58.5848 0.741211 45.6361 0.741211 29.6631C0.741418 13.6903 13.6903 0.741418 29.6631 0.741211Z" stroke="#F5F7F9" stroke-width="1.48317"/>
<path d="M30.3878 17.8496C32.3446 17.8497 34.1203 18.6467 35.4044 19.9307C36.6906 21.2134 37.4855 22.99 37.4855 24.9502C37.4854 26.9105 36.6885 28.6849 35.4044 29.9707C35.0063 30.3688 34.5604 30.7185 34.0763 31.0137C35.2004 31.4979 36.2562 32.1965 37.2257 33.0762C39.2173 34.8869 40.8367 37.4756 41.8878 40.5342C42.0498 41.0059 41.7966 41.5216 41.3253 41.6836C40.8535 41.8456 40.3378 41.5925 40.1759 41.1211C39.2186 38.3365 37.7687 36.0139 36.0089 34.4141C34.355 32.9101 32.4288 32.0479 30.3859 32.0479C28.4718 32.0479 26.6588 32.8043 25.0753 34.1396L24.7618 34.4141C23.0388 35.9819 21.6118 38.2444 20.6544 40.9551L20.5978 41.1191C20.4361 41.59 19.9201 41.8459 19.4474 41.6816V41.6807C18.9774 41.5186 18.722 41.0044 18.8859 40.5322L19.09 39.9639C20.1414 37.1515 21.681 34.7715 23.548 33.0742L23.9454 32.7275C24.8029 32.0094 25.7253 31.4323 26.6974 31.0127C26.2138 30.7181 25.7664 30.3668 25.3683 29.9688L25.3644 29.9639L25.3253 29.9219V29.9209C24.066 28.6388 23.2893 26.884 23.2892 24.9502C23.2892 22.9948 24.0844 21.2201 25.3702 19.9326L25.3741 19.9297C26.6601 18.6455 28.4343 17.8496 30.3878 17.8496ZM30.3859 19.6621C28.9235 19.6622 27.6009 20.253 26.6476 21.208C25.6909 22.1648 25.0997 23.4876 25.0997 24.9482C25.0998 26.3941 25.6799 27.7035 26.6154 28.6553L26.6437 28.6816L26.6495 28.6865L26.8331 28.8613C27.771 29.7133 29.0202 30.2343 30.3878 30.2344C31.8467 30.2344 33.1709 29.6416 34.1261 28.6865C35.0812 27.7314 35.6738 26.4071 35.674 24.9482C35.674 23.4989 35.0888 22.183 34.1447 21.2275L34.1251 21.208C33.1717 20.253 31.8484 19.6621 30.3859 19.6621Z" fill="white" stroke="white" stroke-width="0.3"/>
</svg>
